<?xml version="1.0" encoding="UTF-8" standalone="no"?>
<svg
   xmlns:dc="http://purl.org/dc/elements/1.1/"
   xmlns:cc="http://creativecommons.org/ns#"
   xmlns:rdf="http://www.w3.org/1999/02/22-rdf-syntax-ns#"
   xmlns:svg="http://www.w3.org/2000/svg"
   xmlns="http://www.w3.org/2000/svg"
   xmlns:sodipodi="http://sodipodi.sourceforge.net/DTD/sodipodi-0.dtd"
   xmlns:inkscape="http://www.inkscape.org/namespaces/inkscape"
   width="700pt"
   height="700pt"
   version="1.1"
   viewBox="0 0 700 700"
   id="svg4"
   sodipodi:docname="santosAgenciaDeViagens.svg"
   inkscape:version="1.0.1 (3bc2e813f5, 2020-09-07)"
   inkscape:export-filename="D:\Dropbox\projects\recodePro\modulo2\santosAgenciaDeViagens\imagens\marca\santosAgenciaDeViagens.png"
   inkscape:export-xdpi="68.650002"
   inkscape:export-ydpi="68.650002">
  <g
     id="g1209"
     transform="translate(-10.270305,80.0356)">
    <path
       style="fill:#ffcd00;fill-opacity:1;stroke:#ffcd00;stroke-width:14.4488;stroke-linecap:round;stroke-linejoin:miter;stroke-miterlimit:4;stroke-dasharray:none;stroke-opacity:1"
       d="M 128.68702,348.45525 V 437.3958"
       id="path3809-3" />
    <path
       d="m 374.66604,36.109712 c -33.355,0 -60.5,27.152 -60.5,60.51599 0,0.2305 0.012,0.4648 0.027,0.6953 l 4.9531,64.148038 -100.27,50.2149 v -14.852 c 0,-2.3203 -0.9219,-4.5469 -2.5625,-6.1875 -1.6407,-1.6405 -3.8672,-2.5624 -6.1875,-2.5624 h -50.188 c -2.3203,0 -4.5469,0.9219 -6.1875,2.5624 -1.6406,1.6406 -2.5625,3.8672 -2.5625,6.1875 v 48.746 l -25.695,12.867 c -2.9609,1.4805 -4.832,4.5117 -4.832,7.8242 v 38.621 0 c 0,2.5547 1.1172,4.9844 3.0586,6.6445 1.9375,1.6641 4.5078,2.3945 7.0352,2.0039 l 197.76,-30.73 12.762,165.28 -57.094,20.762 c -3.457,1.2578 -5.7578,4.543 -5.7578,8.2227 v 32.801 c 0,4.832 3.9141,8.75 8.7461,8.75 h 65.34 c 0.8867,0.2813 1.8125,0.4297 2.7461,0.4297 h 38.832 v 0 c 0.9335,0 1.8594,-0.1484 2.7461,-0.4297 h 65.609 c 2.3203,0 4.5469,-0.9219 6.1875,-2.5625 1.6406,-1.6406 2.5625,-3.8672 2.5625,-6.1875 v -32.801 c 0,-3.6797 -2.3008,-6.9648 -5.7578,-8.2227 l -57.359,-20.855 12.746,-165.11 197.25,30.648 v 0 c 2.5234,0.3906 5.0938,-0.3398 7.0352,-2.0039 1.9375,-1.6641 3.0547,-4.0898 3.0547,-6.6445 v -38.621 0 c 0,-3.3125 -1.8711,-6.3438 -4.832,-7.8242 l -25.695,-12.867 v -48.746 c 0,-4.832 -3.9141,-8.7499 -8.7461,-8.7499 h -50.191 c -4.832,0 -8.7461,3.9179 -8.7461,8.7499 v 14.852 l -99.777,-49.9609 4.9688,-64.402038 -0.031,0.332 c 3.8945,-34.35195 -27.031,-61.54695 -60.426,-61.54695 z m 0,18.352 c 23.461,0 44.7029,18.973 42.199,41.13299 v 0 0.332 l -31.25,404.789938 h -21.84 l -31.215,-404.299938 c 0,-23.40596 18.711,-41.94896 42.141,-41.94896 z m -54.066,125.860028 6.5625,84.9999 -189.01,29.367 v -23.004 l 24.477,-12.258 v 0 c 0.8242,-0.2695 1.6055,-0.6602 2.3125,-1.1562 z m 108.1,0.332 155.16,77.6949 v 0 c 0.7109,0.5 1.4922,0.8907 2.3164,1.1562 l 24.4769,12.258 v 23.004 l -188.4999,-29.285 z m -260.0198,25.0199 h 32.691 v 14.863 l -32.691,16.371 z m 378.75,0 h 32.691 v 31.234 l -32.691,-16.371 z m -277.69,114.12 c -2.3203,0 -4.5469,0.9219 -6.1875,2.5625 -1.6406,1.6406 -2.5625,3.8672 -2.5625,6.1875 v 40.602 c 0,2.3203 0.9219,4.5469 2.5625,6.1875 1.6406,1.6406 3.8672,2.5625 6.1875,2.5625 2.3203,0 4.5469,-0.9218 6.1875,-2.5625 1.6406,-1.6406 2.5625,-3.8672 2.5625,-6.1875 v -40.602 c 0,-2.3242 -0.9219,-4.5469 -2.5625,-6.1875 -1.6406,-1.6445 -3.8672,-2.5664 -6.1875,-2.5625 z m 209.31,0 c -4.8281,0 -8.7461,3.918 -8.7461,8.75 v 40.602 c 0,4.832 3.918,8.75 8.7461,8.75 2.3242,0 4.5469,-0.9218 6.1914,-2.5625 1.6406,-1.6406 2.5625,-3.8672 2.5625,-6.1875 v -40.602 c 0,-2.3203 -0.9219,-4.5469 -2.5625,-6.1875 -1.6445,-1.6406 -3.8672,-2.5625 -6.1914,-2.5625 z m -279.48,10.805 c -4.832,0 -8.75,3.918 -8.75,8.75 v 63.137 c 0,2.3203 0.9219,4.5469 2.5625,6.1875 1.6406,1.6406 3.8672,2.5625 6.1875,2.5625 4.832,0 8.7461,-3.918 8.7461,-8.75 v -63.141 c 0,-4.8281 -3.9141,-8.7422 -8.7461,-8.7461 z m 349.65,0 c -4.832,0 -8.7461,3.918 -8.75,8.75 v 63.137 c 0,2.3203 0.9219,4.5469 2.5625,6.1875 1.6406,1.6406 3.8672,2.5625 6.1875,2.5625 4.832,0 8.75,-3.918 8.75,-8.75 v -63.137 c 0,-4.832 -3.918,-8.7461 -8.75,-8.75 z m -419.82,10.941 c -4.832,0 -8.75,3.9141 -8.75,8.7461 v 85.672 c 0,2.3203 0.9219,4.5469 2.5625,6.1875 1.6406,1.6406 3.8672,2.5625 6.1875,2.5625 4.832,0 8.7461,-3.918 8.7461,-8.75 v -85.672 c 0,-4.832 -3.9141,-8.7461 -8.7461,-8.7461 z m 489.99,0 c -4.832,0 -8.7461,3.9141 -8.75,8.7461 v 85.672 c 0,2.3203 0.9219,4.5469 2.5625,6.1875 1.6406,1.6406 3.8672,2.5625 6.1875,2.5625 4.832,0 8.75,-3.918 8.75,-8.75 v -85.672 c 0,-4.832 -3.918,-8.7461 -8.75,-8.7461 z m -212.74,124.65 47.023,17.094 v 17.926 h -49.727 z m -63.984,0 2.7109,34.922 h -49.449 v -17.926 z"
       id="path8994-8"
       style="fill:#3792ff;fill-opacity:1;stroke-width:0.999998"
       inkscape:export-xdpi="68.650002"
       inkscape:export-ydpi="68.650002" />
    <path
       style="fill:#ffcd00;fill-opacity:1;stroke:#ffcd00;stroke-width:17.9115;stroke-linecap:round;stroke-linejoin:miter;stroke-miterlimit:4;stroke-dasharray:none;stroke-opacity:1"
       d="m 269.88079,328.17498 v 42.03075"
       id="path3809-8-1-5-8-9-6" />
    <path
       style="fill:#ffcd00;fill-opacity:1;stroke:#3792ff;stroke-width:12.8543;stroke-linecap:round;stroke-linejoin:miter;stroke-miterlimit:4;stroke-dasharray:none;stroke-opacity:1"
       d="m 373.84537,452.95866 v 21.64709"
       id="path3809-8-1-5-8-9-1" />
    <path
       style="fill:#ffcd00;fill-opacity:1;stroke:#ffcd00;stroke-width:24.4458;stroke-linecap:round;stroke-linejoin:miter;stroke-miterlimit:4;stroke-dasharray:none;stroke-opacity:1"
       d="m 129.49393,353.56946 v 78.29098"
       id="path3809-8-1-5-8-9-6-4" />
    <path
       style="fill:#ffcd00;fill-opacity:1;stroke:#ffcd00;stroke-width:22.2435;stroke-linecap:round;stroke-linejoin:miter;stroke-miterlimit:4;stroke-dasharray:none;stroke-opacity:1"
       d="m 199.57996,338.55374 v 64.81963"
       id="path3809-8-1-5-8-9-6-8" />
    <path
       style="fill:#ffcd00;fill-opacity:1;stroke:#ffcd00;stroke-width:17.9115;stroke-linecap:round;stroke-linejoin:miter;stroke-miterlimit:4;stroke-dasharray:none;stroke-opacity:1"
       d="m 479.29343,328.19277 v 42.03075"
       id="path3809-8-1-5-8-9-6-2" />
    <path
       style="fill:#ffcd00;fill-opacity:1;stroke:#ffcd00;stroke-width:24.4458;stroke-linecap:round;stroke-linejoin:miter;stroke-miterlimit:4;stroke-dasharray:none;stroke-opacity:1"
       d="m 619.68029,353.58725 v 78.29098"
       id="path3809-8-1-5-8-9-6-4-5" />
    <path
       style="fill:#ffcd00;fill-opacity:1;stroke:#ffcd00;stroke-width:22.2435;stroke-linecap:round;stroke-linejoin:miter;stroke-miterlimit:4;stroke-dasharray:none;stroke-opacity:1"
       d="m 549.59425,338.57153 v 64.81963"
       id="path3809-8-1-5-8-9-6-8-1" />
  </g>
  <metadata
     id="metadata10">
    <rdf:RDF>
      <cc:Work
         rdf:about="">
        <dc:format>image/svg+xml</dc:format>
        <dc:type
           rdf:resource="http://purl.org/dc/dcmitype/StillImage" />
      </cc:Work>
    </rdf:RDF>
  </metadata>
  <defs
     id="defs8" />
  <sodipodi:namedview
     pagecolor="#ffffff"
     bordercolor="#666666"
     borderopacity="1"
     objecttolerance="10"
     gridtolerance="10"
     guidetolerance="10"
     inkscape:pageopacity="0"
     inkscape:pageshadow="2"
     inkscape:window-width="1920"
     inkscape:window-height="1057"
     id="namedview6"
     showgrid="false"
     inkscape:zoom="0.65723466"
     inkscape:cx="538.49998"
     inkscape:cy="482.64354"
     inkscape:window-x="-8"
     inkscape:window-y="-8"
     inkscape:window-maximized="1"
     inkscape:current-layer="svg4"
     showguides="true"
     inkscape:guide-bbox="true"
     inkscape:document-rotation="0">
    <sodipodi:guide
       position="-921.49274,524.09334"
       orientation="1,0"
       id="guide3882" />
  </sodipodi:namedview>
</svg>
