<?xml version="1.0" encoding="UTF-8"?>
<svg width="700pt" height="700pt" version="1.1" viewBox="0 0 700 700" xmlns="http://www.w3.org/2000/svg">
 <path d="m350.26 38.531c-33.355 0-60.5 27.152-60.5 60.516 0 0.23047 0.011719 0.46484 0.027344 0.69531l4.9531 64.148-100.27 50.215v-14.852c0-2.3203-0.92188-4.5469-2.5625-6.1875s-3.8672-2.5625-6.1875-2.5625h-50.188c-2.3203 0-4.5469 0.92188-6.1875 2.5625s-2.5625 3.8672-2.5625 6.1875v48.746l-25.695 12.867c-2.9609 1.4805-4.832 4.5117-4.832 7.8242v38.621-0.003906c0 2.5547 1.1172 4.9844 3.0586 6.6445 1.9375 1.6641 4.5078 2.3945 7.0352 2.0039l197.76-30.73 12.762 165.28-57.094 20.762c-3.457 1.2578-5.7578 4.543-5.7578 8.2227v32.801c0 4.832 3.9141 8.75 8.7461 8.75h65.34c0.88672 0.28125 1.8125 0.42969 2.7461 0.42969h38.832-0.003907c0.93359 0 1.8594-0.14844 2.7461-0.42969h65.609c2.3203 0 4.5469-0.92188 6.1875-2.5625s2.5625-3.8672 2.5625-6.1875v-32.801c0-3.6797-2.3008-6.9648-5.7578-8.2227l-57.359-20.855 12.746-165.11 197.25 30.648h-0.003906c2.5234 0.39062 5.0938-0.33984 7.0352-2.0039 1.9375-1.6641 3.0547-4.0898 3.0547-6.6445v-38.621 0.003906c0-3.3125-1.8711-6.3438-4.832-7.8242l-25.695-12.867v-48.746c0-4.832-3.9141-8.75-8.7461-8.75h-50.191c-4.832 0-8.7461 3.918-8.7461 8.75v14.852l-99.777-49.961 4.9688-64.402-0.03125 0.33203c3.8945-34.352-27.031-61.547-60.426-61.547zm0.003907 18.352c23.461 0 44.703 18.973 42.199 41.133h-0.003907v0.33203l-31.25 404.79h-21.84l-31.215-404.3c0-23.406 18.711-41.949 42.141-41.949zm-54.066 125.86 6.5625 85-189.01 29.367v-23.004l24.477-12.258v-0.003906c0.82422-0.26953 1.6055-0.66016 2.3125-1.1562zm108.1 0.33203 155.16 77.695v-0.003906c0.71094 0.5 1.4922 0.89062 2.3164 1.1562l24.477 12.258v23.004l-188.5-29.285zm-260.02 25.02h32.691v14.863l-32.691 16.371zm378.75 0h32.691v31.234l-32.691-16.371zm-277.69 114.12c-2.3203 0-4.5469 0.92188-6.1875 2.5625-1.6406 1.6406-2.5625 3.8672-2.5625 6.1875v40.602c0 2.3203 0.92187 4.5469 2.5625 6.1875 1.6406 1.6406 3.8672 2.5625 6.1875 2.5625 2.3203 0 4.5469-0.92187 6.1875-2.5625 1.6406-1.6406 2.5625-3.8672 2.5625-6.1875v-40.602c0-2.3242-0.92188-4.5469-2.5625-6.1875-1.6406-1.6445-3.8672-2.5664-6.1875-2.5625zm209.31 0c-4.8281 0-8.7461 3.918-8.7461 8.75v40.602c0 4.832 3.918 8.75 8.7461 8.75 2.3242 0 4.5469-0.92187 6.1914-2.5625 1.6406-1.6406 2.5625-3.8672 2.5625-6.1875v-40.602c0-2.3203-0.92188-4.5469-2.5625-6.1875-1.6445-1.6406-3.8672-2.5625-6.1914-2.5625zm-279.48 10.805c-4.832 0-8.75 3.918-8.75 8.75v63.137c0 2.3203 0.92188 4.5469 2.5625 6.1875s3.8672 2.5625 6.1875 2.5625c4.832-0.003906 8.7461-3.918 8.7461-8.75v-63.141c0-4.8281-3.9141-8.7422-8.7461-8.7461zm349.65 0c-4.832 0-8.7461 3.918-8.75 8.75v63.137c0 2.3203 0.92188 4.5469 2.5625 6.1875 1.6406 1.6406 3.8672 2.5625 6.1875 2.5625 4.832-0.003906 8.75-3.918 8.75-8.75v-63.137c-0.003906-4.832-3.918-8.7461-8.75-8.75zm-419.82 10.941c-4.832 0-8.75 3.9141-8.75 8.7461v85.672c0 2.3203 0.92188 4.5469 2.5625 6.1875 1.6406 1.6406 3.8672 2.5625 6.1875 2.5625 4.832 0 8.7461-3.918 8.7461-8.75v-85.672c0-4.832-3.9141-8.7461-8.7461-8.7461zm489.99 0c-4.832 0-8.7461 3.9141-8.75 8.7461v85.672c0 2.3203 0.92188 4.5469 2.5625 6.1875 1.6406 1.6406 3.8672 2.5625 6.1875 2.5625 4.832 0 8.75-3.918 8.75-8.75v-85.672c-0.003906-4.832-3.918-8.7461-8.75-8.7461zm-212.74 124.65 47.023 17.094v17.926l-49.727-0.003907zm-63.984 0 2.7109 34.922h-49.449v-17.926z"/>
</svg>
