<?xml version="1.0" encoding="UTF-8"?>
<svg width="700pt" height="700pt" version="1.1" viewBox="0 0 700 700" xmlns="http://www.w3.org/2000/svg" xmlns:xlink="http://www.w3.org/1999/xlink">
 <defs>
  <symbol id="s" overflow="visible">
   <path d="m7.6562-0.45312c-0.39844 0.19922-0.80859 0.35156-1.2344 0.45312-0.42969 0.10156-0.87109 0.15625-1.3281 0.15625-1.3984 0-2.5-0.38281-3.3125-1.1562-0.8125-0.78125-1.2188-1.832-1.2188-3.1562 0-1.332 0.40625-2.3828 1.2188-3.1562 0.8125-0.78125 1.9141-1.1719 3.3125-1.1719 0.45703 0 0.89844 0.054687 1.3281 0.15625 0.42578 0.10547 0.83594 0.25781 1.2344 0.45312v1.7344c-0.39844-0.26953-0.78906-0.46875-1.1719-0.59375-0.38672-0.13281-0.79297-0.20312-1.2188-0.20312-0.77344 0-1.375 0.25-1.8125 0.75-0.4375 0.49219-0.65625 1.168-0.65625 2.0312 0 0.85547 0.21875 1.5312 0.65625 2.0312 0.4375 0.49219 1.0391 0.73438 1.8125 0.73438 0.42578 0 0.83203-0.0625 1.2188-0.1875 0.38281-0.13281 0.77344-0.33594 1.1719-0.60938z"/>
  </symbol>
  <symbol id="c" overflow="visible">
   <path d="m5.6094-4.5469c-0.17969-0.082031-0.35547-0.14453-0.53125-0.1875-0.16797-0.039063-0.33984-0.0625-0.51562-0.0625-0.51172 0-0.90625 0.16797-1.1875 0.5-0.28125 0.33594-0.42188 0.80859-0.42188 1.4219v2.875h-2v-6.25h2v1.0156c0.25781-0.40625 0.55469-0.70312 0.89062-0.89062 0.33203-0.1875 0.73438-0.28125 1.2031-0.28125 0.0625 0 0.12891 0.007812 0.20312 0.015625 0.082031 0 0.19531 0.011719 0.34375 0.03125z"/>
  </symbol>
  <symbol id="a" overflow="visible">
   <path d="m7.2031-3.1406v0.5625h-4.6719c0.050781 0.46875 0.21875 0.82422 0.5 1.0625 0.28906 0.23047 0.69531 0.34375 1.2188 0.34375 0.42578 0 0.85938-0.0625 1.2969-0.1875s0.89062-0.3125 1.3594-0.5625v1.5469c-0.46875 0.17969-0.94531 0.30859-1.4219 0.39062-0.46875 0.09375-0.9375 0.14062-1.4062 0.14062-1.1367 0-2.0234-0.28516-2.6562-0.85938-0.625-0.57031-0.9375-1.3789-0.9375-2.4219 0-1.0195 0.30469-1.8203 0.92188-2.4062 0.625-0.58203 1.4727-0.875 2.5469-0.875 0.98828 0 1.7734 0.29688 2.3594 0.89062 0.59375 0.59375 0.89062 1.3867 0.89062 2.375zm-2.0469-0.67188c0-0.375-0.11719-0.67578-0.34375-0.90625-0.21875-0.23828-0.50781-0.35938-0.85938-0.35938-0.38672 0-0.70312 0.10938-0.95312 0.32812-0.24219 0.21875-0.39062 0.53125-0.45312 0.9375z"/>
  </symbol>
  <symbol id="i" overflow="visible">
   <path d="m3.7656-2.8125c-0.41797 0-0.73438 0.074219-0.95312 0.21875-0.21094 0.13672-0.3125 0.33984-0.3125 0.60938 0 0.26172 0.082031 0.46484 0.25 0.60938 0.17578 0.13672 0.41406 0.20312 0.71875 0.20312 0.375 0 0.6875-0.13281 0.9375-0.40625 0.25781-0.26953 0.39062-0.60156 0.39062-1v-0.23438zm3.0469-0.75v3.5625h-2.0156v-0.92188c-0.26172 0.375-0.5625 0.65234-0.90625 0.82812-0.33594 0.16406-0.74219 0.25-1.2188 0.25-0.64844 0-1.1719-0.1875-1.5781-0.5625s-0.60938-0.86328-0.60938-1.4688c0-0.73828 0.25-1.2734 0.75-1.6094 0.50781-0.34375 1.3047-0.51562 2.3906-0.51562h1.1719v-0.15625c0-0.32031-0.125-0.55469-0.375-0.70312-0.25-0.14453-0.63672-0.21875-1.1562-0.21875-0.42969 0-0.82812 0.046875-1.2031 0.14062-0.36719 0.085938-0.71094 0.21094-1.0312 0.375v-1.5312c0.4375-0.10156 0.86719-0.17969 1.2969-0.23438 0.4375-0.050781 0.86719-0.078125 1.2969-0.078125 1.125 0 1.9375 0.22656 2.4375 0.67188 0.5 0.4375 0.75 1.1641 0.75 2.1719z"/>
  </symbol>
  <symbol id="b" overflow="visible">
   <path d="m3.1406-8.0312v1.7812h2.0625v1.4219h-2.0625v2.6562c0 0.29297 0.054687 0.49219 0.17188 0.59375 0.11328 0.09375 0.34375 0.14062 0.6875 0.14062h1.0312v1.4375h-1.7188c-0.78125 0-1.3398-0.16016-1.6719-0.48438-0.33594-0.33203-0.5-0.89453-0.5-1.6875v-2.6562h-0.98438v-1.4219h0.98438v-1.7812z"/>
  </symbol>
  <symbol id="g" overflow="visible">
   <path d="m5.2188-5.3438v-3.3438h2.0156v8.6875h-2.0156v-0.90625c-0.28125 0.36719-0.58984 0.63672-0.92188 0.8125-0.32422 0.16406-0.70312 0.25-1.1406 0.25-0.77344 0-1.4062-0.30078-1.9062-0.90625-0.49219-0.61328-0.73438-1.4062-0.73438-2.375 0-0.95703 0.24219-1.7422 0.73438-2.3594 0.5-0.61328 1.1328-0.92188 1.9062-0.92188 0.42578 0 0.80469 0.089844 1.1406 0.26562 0.33203 0.16797 0.64062 0.43359 0.92188 0.79688zm-1.3281 4.0469c0.4375 0 0.76562-0.15625 0.98438-0.46875 0.22656-0.3125 0.34375-0.76562 0.34375-1.3594s-0.11719-1.0469-0.34375-1.3594c-0.21875-0.3125-0.54688-0.46875-0.98438-0.46875-0.41797 0-0.74219 0.15625-0.96875 0.46875-0.23047 0.3125-0.34375 0.76562-0.34375 1.3594s0.11328 1.0469 0.34375 1.3594c0.22656 0.3125 0.55078 0.46875 0.96875 0.46875z"/>
  </symbol>
  <symbol id="h" overflow="visible">
   <path d="m4.2969-1.2969c0.42578 0 0.75-0.15625 0.96875-0.46875 0.22656-0.3125 0.34375-0.76562 0.34375-1.3594s-0.11719-1.0469-0.34375-1.3594c-0.21875-0.3125-0.54297-0.46875-0.96875-0.46875-0.4375 0-0.77344 0.15625-1 0.46875-0.23047 0.3125-0.34375 0.76562-0.34375 1.3594s0.11328 1.0469 0.34375 1.3594c0.22656 0.3125 0.5625 0.46875 1 0.46875zm-1.3438-4.0469c0.28125-0.36328 0.58594-0.62891 0.92188-0.79688 0.33203-0.17578 0.71875-0.26562 1.1562-0.26562 0.76953 0 1.3984 0.30859 1.8906 0.92188 0.5 0.61719 0.75 1.4023 0.75 2.3594 0 0.96875-0.25 1.7617-0.75 2.375-0.49219 0.60547-1.1211 0.90625-1.8906 0.90625-0.4375 0-0.82422-0.085938-1.1562-0.25-0.33594-0.17578-0.64062-0.44531-0.92188-0.8125v0.90625h-2v-8.6875h2z"/>
  </symbol>
  <symbol id="f" overflow="visible">
   <path d="m0.14062-6.25h2l1.6719 4.2344 1.4375-4.2344h2l-2.625 6.8438c-0.27344 0.69531-0.58594 1.1797-0.9375 1.4531-0.34375 0.28125-0.80859 0.42188-1.3906 0.42188h-1.1562v-1.3125h0.625c0.34375 0 0.58594-0.058594 0.73438-0.17188 0.15625-0.10547 0.28125-0.29688 0.375-0.57812l0.046875-0.17188z"/>
  </symbol>
  <symbol id="e" overflow="visible">
   <path d="m0.89062-2.4375v-3.8125h2.0156v0.625c0 0.33594-0.007812 0.76172-0.015625 1.2812v1.0156c0 0.5 0.007813 0.86719 0.03125 1.0938 0.03125 0.21875 0.078125 0.375 0.14062 0.46875 0.082031 0.13672 0.1875 0.24219 0.3125 0.3125 0.13281 0.074219 0.28906 0.10938 0.46875 0.10938 0.41406 0 0.74219-0.16016 0.98438-0.48438 0.23828-0.32031 0.35938-0.76953 0.35938-1.3438v-3.0781h2v6.25h-2v-0.90625c-0.30469 0.36719-0.625 0.63672-0.96875 0.8125-0.33594 0.16406-0.70312 0.25-1.1094 0.25-0.71875 0-1.2734-0.21875-1.6562-0.65625-0.375-0.44531-0.5625-1.0938-0.5625-1.9375z"/>
  </symbol>
  <symbol id="r" overflow="visible">
   <path d="m0.95312-6.25h2v6.25h-2zm0-2.4375h2v1.625h-2z"/>
  </symbol>
  <symbol id="q" overflow="visible">
   <path d="m5.0781-8.6875v1.3125h-1.1094c-0.28125 0-0.48047 0.054688-0.59375 0.15625-0.10547 0.10547-0.15625 0.28125-0.15625 0.53125v0.4375h1.7031v1.4219h-1.7031v4.8281h-2v-4.8281h-1v-1.4219h1v-0.4375c0-0.6875 0.1875-1.1914 0.5625-1.5156 0.375-0.32031 0.96094-0.48438 1.7656-0.48438z"/>
  </symbol>
  <symbol id="d" overflow="visible">
   <path d="m3.9375-4.9688c-0.44922 0-0.78906 0.16406-1.0156 0.48438-0.23047 0.3125-0.34375 0.76562-0.34375 1.3594 0 0.60547 0.11328 1.0703 0.34375 1.3906 0.22656 0.3125 0.56641 0.46875 1.0156 0.46875 0.4375 0 0.76953-0.15625 1-0.46875 0.22656-0.32031 0.34375-0.78516 0.34375-1.3906 0-0.59375-0.11719-1.0469-0.34375-1.3594-0.23047-0.32031-0.5625-0.48438-1-0.48438zm0-1.4375c1.0703 0 1.9102 0.29297 2.5156 0.875 0.60156 0.58594 0.90625 1.3867 0.90625 2.4062 0 1.0312-0.30469 1.8398-0.90625 2.4219-0.60547 0.57422-1.4453 0.85938-2.5156 0.85938-1.0859 0-1.9336-0.28516-2.5469-0.85938-0.60547-0.58203-0.90625-1.3906-0.90625-2.4219 0-1.0195 0.30078-1.8203 0.90625-2.4062 0.61328-0.58203 1.4609-0.875 2.5469-0.875z"/>
  </symbol>
  <symbol id="p" overflow="visible">
   <path d="m6.75-5.2188c0.25781-0.38281 0.5625-0.67578 0.90625-0.875 0.35156-0.20703 0.73828-0.3125 1.1562-0.3125 0.71875 0 1.2656 0.22656 1.6406 0.67188 0.375 0.4375 0.5625 1.0781 0.5625 1.9219v3.8125h-2.0156v-3.2656c0.007812-0.039063 0.015625-0.085937 0.015625-0.14062v-0.23438c0-0.4375-0.070313-0.75391-0.20312-0.95312-0.125-0.19531-0.33594-0.29688-0.625-0.29688-0.375 0-0.66797 0.15625-0.875 0.46875-0.21094 0.3125-0.32031 0.76172-0.32812 1.3438v3.0781h-2.0156v-3.2656c0-0.6875-0.058594-1.1289-0.17188-1.3281-0.11719-0.19531-0.32812-0.29688-0.64062-0.29688-0.38672 0-0.68359 0.15625-0.89062 0.46875-0.21094 0.3125-0.3125 0.76172-0.3125 1.3438v3.0781h-2v-6.25h2v0.90625c0.25-0.35156 0.53125-0.61719 0.84375-0.79688 0.32031-0.17578 0.67578-0.26562 1.0625-0.26562 0.42578 0 0.80469 0.10547 1.1406 0.3125 0.33203 0.21094 0.58203 0.5 0.75 0.875z"/>
  </symbol>
  <symbol id="o" overflow="visible">
   <path d="m7.25-3.8125v3.8125h-2.0156v-2.9062c0-0.53906-0.011719-0.91406-0.03125-1.125-0.023437-0.20703-0.0625-0.35938-0.125-0.45312-0.085937-0.13281-0.19531-0.23438-0.32812-0.29688-0.125-0.070312-0.27734-0.10938-0.45312-0.10938-0.41797 0-0.74609 0.16406-0.98438 0.48438-0.24219 0.3125-0.35938 0.75781-0.35938 1.3281v3.0781h-2v-8.6875h2v3.3438c0.30078-0.36328 0.61719-0.62891 0.95312-0.79688 0.34375-0.17578 0.72266-0.26562 1.1406-0.26562 0.71875 0 1.2656 0.22656 1.6406 0.67188 0.375 0.4375 0.5625 1.0781 0.5625 1.9219z"/>
  </symbol>
  <symbol id="n" overflow="visible">
   <path d="m1.0469-8.3438h2.4062l3.0312 5.7188v-5.7188h2.0312v8.3438h-2.3906l-3.0312-5.7188v5.7188h-2.0469z"/>
  </symbol>
  <symbol id="m" overflow="visible">
   <path d="m7.25-3.8125v3.8125h-2.0156v-2.9219c0-0.53125-0.011719-0.89844-0.03125-1.1094-0.023437-0.20703-0.0625-0.35938-0.125-0.45312-0.085937-0.13281-0.19531-0.23438-0.32812-0.29688-0.125-0.070312-0.27734-0.10938-0.45312-0.10938-0.41797 0-0.74609 0.16406-0.98438 0.48438-0.24219 0.3125-0.35938 0.75781-0.35938 1.3281v3.0781h-2v-6.25h2v0.90625c0.30078-0.36328 0.61719-0.62891 0.95312-0.79688 0.34375-0.17578 0.72266-0.26562 1.1406-0.26562 0.71875 0 1.2656 0.22656 1.6406 0.67188 0.375 0.4375 0.5625 1.0781 0.5625 1.9219z"/>
  </symbol>
  <symbol id="l" overflow="visible">
   <path d="m1.0469-8.3438h3.5781c1.0508 0 1.8594 0.24219 2.4219 0.71875 0.57031 0.46875 0.85938 1.1367 0.85938 2 0 0.875-0.28906 1.5547-0.85938 2.0312-0.5625 0.46875-1.3711 0.70312-2.4219 0.70312h-1.4219v2.8906h-2.1562zm2.1562 1.5625v2.3281h1.1875c0.41406 0 0.73828-0.097656 0.96875-0.29688 0.22656-0.20703 0.34375-0.5 0.34375-0.875 0-0.36328-0.11719-0.64453-0.34375-0.84375-0.23047-0.20703-0.55469-0.3125-0.96875-0.3125z"/>
  </symbol>
  <symbol id="k" overflow="visible">
   <path d="m0.95312-6.25h2v6.1406c0 0.83203-0.20312 1.4688-0.60938 1.9062-0.39844 0.44531-0.97656 0.67188-1.7344 0.67188h-0.98438v-1.3125h0.34375c0.375 0 0.62891-0.089844 0.76562-0.26562 0.14453-0.16797 0.21875-0.5 0.21875-1zm0-2.4375h2v1.625h-2z"/>
  </symbol>
  <symbol id="j" overflow="visible">
   <path d="m6.0156-6.0625v1.6406c-0.27344-0.1875-0.54688-0.32031-0.82812-0.40625-0.27344-0.09375-0.55469-0.14062-0.84375-0.14062-0.5625 0-1 0.16406-1.3125 0.48438-0.30469 0.32422-0.45312 0.77734-0.45312 1.3594 0 0.58594 0.14844 1.043 0.45312 1.375 0.3125 0.32422 0.75 0.48438 1.3125 0.48438 0.3125 0 0.60938-0.046875 0.89062-0.14062s0.53906-0.23438 0.78125-0.42188v1.6406c-0.3125 0.11719-0.63281 0.19531-0.95312 0.25-0.32422 0.0625-0.64844 0.09375-0.96875 0.09375-1.125 0-2.0117-0.28516-2.6562-0.85938-0.63672-0.58203-0.95312-1.3906-0.95312-2.4219s0.31641-1.832 0.95312-2.4062c0.64453-0.58203 1.5312-0.875 2.6562-0.875 0.32031 0 0.64453 0.03125 0.96875 0.09375 0.32031 0.054688 0.64062 0.13672 0.95312 0.25z"/>
  </symbol>
 </defs>
 <g>
  <path d="m347.71 384.31c-4.5742-77.777-22.875-114.38-66.34-134.97-66.34-32.027-166.99 13.727-281.37-36.602 16.012 27.449 34.312 43.465 54.902 52.613-9.1484-6.8633-18.301-18.301-25.164-32.027 96.078 43.465 180.72 4.5742 237.91 32.027 32.027 13.727 50.328 43.465 52.613 100.65 6.8633 6.8633 13.727 13.727 27.449 18.301z" fill-rule="evenodd"/>
  <path d="m134.97 398.04c38.891 22.875 77.777 27.449 121.24 18.301-2.2891-6.8633-6.8633-13.727-11.438-20.59-11.438 25.164-93.789 0-109.8 2.2891z" fill-rule="evenodd"/>
  <path d="m292.81 411.77c-9.1484-41.176-27.449-61.766-57.191-77.777-43.465-20.59-102.94-6.8633-171.57-11.438-2.2891 20.59 11.438 29.738 25.164 34.312-2.2891-4.5742-11.438-13.727-11.438-20.59 57.191 4.5742 114.38-4.5742 150.98 13.727 25.164 11.438 41.176 29.738 48.039 61.766h16.012z" fill-rule="evenodd"/>
  <path d="m96.078 366.01c4.5742 11.438 11.438 18.301 22.875 20.59-2.2891-2.2891-2.2891-4.5742-4.5742-6.8633 32.027-4.5742 77.777-11.438 105.23 9.1484 4.5742-2.2891 9.1484-2.2891 13.727-4.5742-34.312-32.027-93.789-22.875-137.25-18.301z" fill-rule="evenodd"/>
  <path d="m352.29 384.31c4.5742-77.777 22.875-114.38 66.34-134.97 66.34-32.027 166.99 16.012 281.37-36.602-16.012 27.449-34.312 43.465-54.902 52.613 9.1484-6.8633 18.301-18.301 25.164-32.027-96.078 43.465-180.72 4.5742-237.91 32.027-32.027 16.012-50.328 43.465-52.613 100.65-6.8633 9.1484-13.727 13.727-27.449 18.301z" fill-rule="evenodd"/>
  <path d="m565.03 398.04c-38.891 22.875-77.777 27.449-121.24 18.301 2.2891-6.8633 6.8633-13.727 11.438-18.301 11.438 22.875 93.789-2.2891 109.8 0z" fill-rule="evenodd"/>
  <path d="m407.19 411.77c9.1484-38.891 27.449-61.766 57.191-77.777 43.465-20.59 102.94-6.8633 171.57-11.438 2.2891 20.59-11.438 29.738-25.164 34.312 2.2891-4.5742 11.438-13.727 11.438-20.59-57.191 4.5742-114.38-4.5742-150.98 13.727-25.164 11.438-41.176 29.738-48.039 61.766h-16.012z" fill-rule="evenodd"/>
  <path d="m603.92 366.01c-4.5742 11.438-11.438 18.301-22.875 22.875 2.2891-2.2891 2.2891-6.8633 4.5742-9.1484-32.027-4.5742-77.777-11.438-105.23 9.1484-4.5742 0-9.1484-2.2891-13.727-4.5742 34.312-32.027 93.789-22.875 137.25-18.301z" fill-rule="evenodd"/>
  <path d="m354.57 432.35v-4.5742c2.2891-2.2891 4.5742-2.2891 6.8633-4.5742 0-6.8633 2.2891-11.438 2.2891-18.301 18.301-4.5742 36.602-27.449 41.176-48.039 11.438-50.328 50.328-64.051 82.352-64.051 48.039 0 130.39 20.59 173.86-11.438-11.438 22.875-11.438 22.875-25.164 34.312h2.2891c25.164-4.5742 43.465-34.312 43.465-64.051-48.039 48.039-134.97 25.164-192.16 25.164-38.891 0-84.641 18.301-98.367 75.488-4.5742 25.164-20.59 32.027-41.176 38.891-20.59-6.8633-36.602-13.727-41.176-38.891-13.727-57.191-59.477-75.488-98.367-75.488-57.191 0-144.12 22.875-192.16-25.164 0 29.738 18.301 59.477 43.465 64.051h2.2891c-13.727-11.438-13.727-11.438-25.164-34.312 43.465 32.027 125.82 11.438 173.86 9.1484 32.027 0 70.914 16.012 82.352 66.34 4.5742 20.59 22.875 41.176 41.176 48.039 0 6.8633 2.2891 11.438 2.2891 18.301 2.2891 0 4.5742 2.2891 6.8633 4.5742v4.5742l4.5742-2.2891z" fill-rule="evenodd"/>
  <use y="466.667969" xlink:href="#s"/>
  <use x="8.394531" y="466.667969" xlink:href="#c"/>
  <use x="14.035156" y="466.667969" xlink:href="#a"/>
  <use x="21.792969" y="466.667969" xlink:href="#i"/>
  <use x="29.511719" y="466.667969" xlink:href="#b"/>
  <use x="34.976562" y="466.667969" xlink:href="#a"/>
  <use x="42.734375" y="466.667969" xlink:href="#g"/>
  <use x="54.90625" y="466.667969" xlink:href="#h"/>
  <use x="63.09375" y="466.667969" xlink:href="#f"/>
  <use x="74.53125" y="466.667969" xlink:href="#f"/>
  <use x="81.988281" y="466.667969" xlink:href="#e"/>
  <use x="90.128906" y="466.667969" xlink:href="#g"/>
  <use x="98.316406" y="466.667969" xlink:href="#r"/>
  <use y="478.105469" xlink:href="#q"/>
  <use x="4.976562" y="478.105469" xlink:href="#c"/>
  <use x="10.617188" y="478.105469" xlink:href="#d"/>
  <use x="18.476562" y="478.105469" xlink:href="#p"/>
  <use x="34.375" y="478.105469" xlink:href="#b"/>
  <use x="39.84375" y="478.105469" xlink:href="#o"/>
  <use x="47.984375" y="478.105469" xlink:href="#a"/>
  <use x="59.726562" y="478.105469" xlink:href="#n"/>
  <use x="69.296875" y="478.105469" xlink:href="#d"/>
  <use x="77.15625" y="478.105469" xlink:href="#e"/>
  <use x="85.296875" y="478.105469" xlink:href="#m"/>
  <use x="97.421875" y="478.105469" xlink:href="#l"/>
  <use x="105.804688" y="478.105469" xlink:href="#c"/>
  <use x="111.445312" y="478.105469" xlink:href="#d"/>
  <use x="119.304688" y="478.105469" xlink:href="#k"/>
  <use x="123.226562" y="478.105469" xlink:href="#a"/>
  <use x="130.984375" y="478.105469" xlink:href="#j"/>
  <use x="137.761719" y="478.105469" xlink:href="#b"/>
 </g>
</svg>
