<?xml version="1.0" encoding="UTF-8"?>
<svg width="700pt" height="700pt" version="1.1" viewBox="0 0 700 700" xmlns="http://www.w3.org/2000/svg" xmlns:xlink="http://www.w3.org/1999/xlink">
 <defs>
  <symbol id="u" overflow="visible">
   <path d="m18.766-1.125c-0.96875 0.5-1.9805 0.875-3.0312 1.125-1.043 0.25781-2.1367 0.39062-3.2812 0.39062-3.3984 0-6.0898-0.94531-8.0781-2.8438-1.9922-1.9062-2.9844-4.4844-2.9844-7.7344 0-3.2578 0.99219-5.8359 2.9844-7.7344 1.9883-1.9062 4.6797-2.8594 8.0781-2.8594 1.1445 0 2.2383 0.13281 3.2812 0.39062 1.0508 0.25 2.0625 0.625 3.0312 1.125v4.2188c-0.98047-0.65625-1.9453-1.1406-2.8906-1.4531-0.94922-0.3125-1.9492-0.46875-3-0.46875-1.875 0-3.3516 0.60547-4.4219 1.8125-1.0742 1.1992-1.6094 2.8555-1.6094 4.9688 0 2.1055 0.53516 3.7617 1.6094 4.9688 1.0703 1.1992 2.5469 1.7969 4.4219 1.7969 1.0508 0 2.0508-0.14844 3-0.45312 0.94531-0.3125 1.9102-0.80078 2.8906-1.4688z"/>
  </symbol>
  <symbol id="b" overflow="visible">
   <path d="m13.734-11.141c-0.4375-0.19531-0.87109-0.34375-1.2969-0.4375-0.41797-0.10156-0.83984-0.15625-1.2656-0.15625-1.2617 0-2.2305 0.40625-2.9062 1.2188-0.67969 0.80469-1.0156 1.9531-1.0156 3.4531v7.0625h-4.8906v-15.312h4.8906v2.5156c0.625-1 1.3438-1.7266 2.1562-2.1875 0.82031-0.46875 1.8008-0.70312 2.9375-0.70312 0.16406 0 0.34375 0.011719 0.53125 0.03125 0.19531 0.011719 0.47656 0.039062 0.84375 0.078125z"/>
  </symbol>
  <symbol id="a" overflow="visible">
   <path d="m17.641-7.7031v1.4062h-11.453c0.125 1.1484 0.53906 2.0078 1.25 2.5781 0.70703 0.57422 1.7031 0.85938 2.9844 0.85938 1.0312 0 2.082-0.14844 3.1562-0.45312 1.082-0.3125 2.1914-0.77344 3.3281-1.3906v3.7656c-1.1562 0.4375-2.3125 0.76562-3.4688 0.98438-1.1562 0.22656-2.3125 0.34375-3.4688 0.34375-2.7734 0-4.9297-0.70312-6.4688-2.1094-1.5312-1.4062-2.2969-3.3789-2.2969-5.9219 0-2.5 0.75391-4.4609 2.2656-5.8906 1.5078-1.4375 3.582-2.1562 6.2188-2.1562 2.4062 0 4.332 0.73047 5.7812 2.1875 1.4453 1.4492 2.1719 3.3828 2.1719 5.7969zm-5.0312-1.625c0-0.92578-0.27344-1.6719-0.8125-2.2344-0.54297-0.57031-1.25-0.85938-2.125-0.85938-0.94922 0-1.7188 0.26562-2.3125 0.79688s-0.96484 1.2969-1.1094 2.2969z"/>
  </symbol>
  <symbol id="f" overflow="visible">
   <path d="m9.2188-6.8906c-1.0234 0-1.793 0.17188-2.3125 0.51562-0.51172 0.34375-0.76562 0.85547-0.76562 1.5312 0 0.625 0.20703 1.1172 0.625 1.4688 0.41406 0.34375 0.98828 0.51562 1.7188 0.51562 0.92578 0 1.7031-0.32812 2.3281-0.98438 0.63281-0.66406 0.95312-1.4922 0.95312-2.4844v-0.5625zm7.4688-1.8438v8.7344h-4.9219v-2.2656c-0.65625 0.92969-1.3984 1.6055-2.2188 2.0312-0.82422 0.41406-1.8242 0.625-3 0.625-1.5859 0-2.8711-0.45703-3.8594-1.375-0.99219-0.92578-1.4844-2.1289-1.4844-3.6094 0-1.7891 0.61328-3.1016 1.8438-3.9375 1.2383-0.84375 3.1797-1.2656 5.8281-1.2656h2.8906v-0.39062c0-0.76953-0.30859-1.332-0.92188-1.6875-0.61719-0.36328-1.5703-0.54688-2.8594-0.54688-1.0547 0-2.0312 0.10547-2.9375 0.3125-0.89844 0.21094-1.7305 0.52344-2.5 0.9375v-3.7344c1.0391-0.25 2.0859-0.44141 3.1406-0.57812 1.0625-0.13281 2.125-0.20312 3.1875-0.20312 2.7578 0 4.75 0.54688 5.9688 1.6406 1.2266 1.0859 1.8438 2.8555 1.8438 5.3125z"/>
  </symbol>
  <symbol id="c" overflow="visible">
   <path d="m7.7031-19.656v4.3438h5.0469v3.5h-5.0469v6.5c0 0.71094 0.14062 1.1875 0.42188 1.4375s0.83594 0.375 1.6719 0.375h2.5156v3.5h-4.1875c-1.9375 0-3.3125-0.39844-4.125-1.2031-0.80469-0.8125-1.2031-2.1797-1.2031-4.1094v-6.5h-2.4219v-3.5h2.4219v-4.3438z"/>
  </symbol>
  <symbol id="i" overflow="visible">
   <path d="m12.766-13.078v-8.2031h4.9219v21.281h-4.9219v-2.2188c-0.66797 0.90625-1.4062 1.5703-2.2188 1.9844s-1.7578 0.625-2.8281 0.625c-1.8867 0-3.4336-0.75-4.6406-2.25-1.2109-1.5-1.8125-3.4258-1.8125-5.7812 0-2.3633 0.60156-4.2969 1.8125-5.7969 1.207-1.5 2.7539-2.25 4.6406-2.25 1.0625 0 2 0.21484 2.8125 0.64062 0.82031 0.42969 1.5664 1.0859 2.2344 1.9688zm-3.2188 9.9219c1.0391 0 1.8359-0.37891 2.3906-1.1406 0.55078-0.76953 0.82812-1.8828 0.82812-3.3438 0-1.457-0.27734-2.5664-0.82812-3.3281-0.55469-0.76953-1.3516-1.1562-2.3906-1.1562-1.043 0-1.8398 0.38672-2.3906 1.1562-0.55469 0.76172-0.82812 1.8711-0.82812 3.3281 0 1.4609 0.27344 2.5742 0.82812 3.3438 0.55078 0.76172 1.3477 1.1406 2.3906 1.1406z"/>
  </symbol>
  <symbol id="h" overflow="visible">
   <path d="m10.5-3.1562c1.0508 0 1.8516-0.37891 2.4062-1.1406 0.55078-0.76953 0.82812-1.8828 0.82812-3.3438 0-1.457-0.27734-2.5664-0.82812-3.3281-0.55469-0.76953-1.3555-1.1562-2.4062-1.1562-1.0547 0-1.8594 0.38672-2.4219 1.1562-0.55469 0.77344-0.82812 1.8828-0.82812 3.3281 0 1.4492 0.27344 2.5586 0.82812 3.3281 0.5625 0.77344 1.3672 1.1562 2.4219 1.1562zm-3.25-9.9219c0.67578-0.88281 1.4219-1.5391 2.2344-1.9688 0.82031-0.42578 1.7656-0.64062 2.8281-0.64062 1.8945 0 3.4453 0.75 4.6562 2.25 1.207 1.5 1.8125 3.4336 1.8125 5.7969 0 2.3555-0.60547 4.2812-1.8125 5.7812-1.2109 1.5-2.7617 2.25-4.6562 2.25-1.0625 0-2.0078-0.21094-2.8281-0.625-0.8125-0.42578-1.5586-1.0859-2.2344-1.9844v2.2188h-4.8906v-21.281h4.8906z"/>
  </symbol>
  <symbol id="e" overflow="visible">
   <path d="m0.34375-15.312h4.8906l4.125 10.391 3.5-10.391h4.8906l-6.4375 16.766c-0.64844 1.6953-1.4023 2.8828-2.2656 3.5625-0.86719 0.6875-2 1.0312-3.4062 1.0312h-2.8438v-3.2188h1.5312c0.83203 0 1.4375-0.13672 1.8125-0.40625 0.38281-0.26172 0.67969-0.73047 0.89062-1.4062l0.14062-0.42188z"/>
  </symbol>
  <symbol id="g" overflow="visible">
   <path d="m0.14062-20.406h5.2812l5.4219 15.062 5.4062-15.062h5.2812l-7.5625 20.406h-6.2656z"/>
  </symbol>
  <symbol id="t" overflow="visible">
   <path d="m2.3594-21.281h4.8906v21.281h-4.8906z"/>
  </symbol>
  <symbol id="s" overflow="visible">
   <path d="m2.3594-15.312h4.8906v15.312h-4.8906zm0-5.9688h4.8906v4h-4.8906z"/>
  </symbol>
  <symbol id="r" overflow="visible">
   <path d="m12.422-21.281v3.2188h-2.7031c-0.6875 0-1.1719 0.125-1.4531 0.375-0.27344 0.25-0.40625 0.6875-0.40625 1.3125v1.0625h4.1875v3.5h-4.1875v11.812h-4.8906v-11.812h-2.4375v-3.5h2.4375v-1.0625c0-1.6641 0.46094-2.8984 1.3906-3.7031 0.92578-0.80078 2.3672-1.2031 4.3281-1.2031z"/>
  </symbol>
  <symbol id="d" overflow="visible">
   <path d="m9.6406-12.188c-1.0859 0-1.9141 0.39062-2.4844 1.1719-0.57422 0.78125-0.85938 1.9062-0.85938 3.375s0.28516 2.5938 0.85938 3.375c0.57031 0.77344 1.3984 1.1562 2.4844 1.1562 1.0625 0 1.875-0.38281 2.4375-1.1562 0.57031-0.78125 0.85938-1.9062 0.85938-3.375s-0.28906-2.5938-0.85938-3.375c-0.5625-0.78125-1.375-1.1719-2.4375-1.1719zm0-3.5c2.6328 0 4.6914 0.71484 6.1719 2.1406 1.4766 1.418 2.2188 3.3867 2.2188 5.9062 0 2.5117-0.74219 4.4805-2.2188 5.9062-1.4805 1.418-3.5391 2.125-6.1719 2.125-2.6484 0-4.7148-0.70703-6.2031-2.125-1.4922-1.4258-2.2344-3.3945-2.2344-5.9062 0-2.5195 0.74219-4.4883 2.2344-5.9062 1.4883-1.4258 3.5547-2.1406 6.2031-2.1406z"/>
  </symbol>
  <symbol id="q" overflow="visible">
   <path d="m16.547-12.766c0.61328-0.94531 1.3477-1.6719 2.2031-2.1719 0.85156-0.5 1.7891-0.75 2.8125-0.75 1.7578 0 3.0977 0.54688 4.0156 1.6406 0.92578 1.0859 1.3906 2.6562 1.3906 4.7188v9.3281h-4.9219v-7.9844-0.35938c0.007813-0.13281 0.015625-0.32031 0.015625-0.5625 0-1.082-0.16406-1.8633-0.48438-2.3438-0.3125-0.48828-0.82422-0.73438-1.5312-0.73438-0.92969 0-1.6484 0.38672-2.1562 1.1562-0.51172 0.76172-0.77344 1.8672-0.78125 3.3125v7.5156h-4.9219v-7.9844c0-1.6953-0.14844-2.7852-0.4375-3.2656-0.29297-0.48828-0.8125-0.73438-1.5625-0.73438-0.9375 0-1.6641 0.38672-2.1719 1.1562-0.51172 0.76172-0.76562 1.8594-0.76562 3.2969v7.5312h-4.9219v-15.312h4.9219v2.2344c0.60156-0.86328 1.2891-1.5156 2.0625-1.9531 0.78125-0.4375 1.6406-0.65625 2.5781-0.65625 1.0625 0 2 0.25781 2.8125 0.76562 0.8125 0.51172 1.4258 1.2305 1.8438 2.1562z"/>
  </symbol>
  <symbol id="p" overflow="visible">
   <path d="m17.75-9.3281v9.3281h-4.9219v-7.1094c0-1.3438-0.03125-2.2656-0.09375-2.7656s-0.16797-0.86719-0.3125-1.1094c-0.1875-0.3125-0.44922-0.55469-0.78125-0.73438-0.32422-0.17578-0.69531-0.26562-1.1094-0.26562-1.0234 0-1.8242 0.39844-2.4062 1.1875-0.58594 0.78125-0.875 1.8711-0.875 3.2656v7.5312h-4.8906v-21.281h4.8906v8.2031c0.73828-0.88281 1.5195-1.5391 2.3438-1.9688 0.83203-0.42578 1.75-0.64062 2.75-0.64062 1.7695 0 3.1133 0.54688 4.0312 1.6406 0.91406 1.0859 1.375 2.6562 1.375 4.7188z"/>
  </symbol>
  <symbol id="o" overflow="visible">
   <path d="m2.5781-20.406h5.875l7.4219 14v-14h4.9844v20.406h-5.875l-7.4219-14v14h-4.9844z"/>
  </symbol>
  <symbol id="n" overflow="visible">
   <path d="m2.1875-5.9688v-9.3438h4.9219v1.5312c0 0.83594-0.007813 1.875-0.015625 3.125-0.011719 1.25-0.015625 2.0859-0.015625 2.5 0 1.2422 0.03125 2.1328 0.09375 2.6719 0.070313 0.54297 0.17969 0.93359 0.32812 1.1719 0.20703 0.32422 0.47266 0.57422 0.79688 0.75 0.32031 0.16797 0.69141 0.25 1.1094 0.25 1.0195 0 1.8203-0.39062 2.4062-1.1719 0.58203-0.78125 0.875-1.8672 0.875-3.2656v-7.5625h4.8906v15.312h-4.8906v-2.2188c-0.74219 0.89844-1.5234 1.5586-2.3438 1.9844-0.82422 0.41406-1.7344 0.625-2.7344 0.625-1.7617 0-3.1055-0.53906-4.0312-1.625-0.92969-1.082-1.3906-2.6602-1.3906-4.7344z"/>
  </symbol>
  <symbol id="m" overflow="visible">
   <path d="m17.75-9.3281v9.3281h-4.9219v-7.1406c0-1.3203-0.03125-2.2344-0.09375-2.7344s-0.16797-0.86719-0.3125-1.1094c-0.1875-0.3125-0.44922-0.55469-0.78125-0.73438-0.32422-0.17578-0.69531-0.26562-1.1094-0.26562-1.0234 0-1.8242 0.39844-2.4062 1.1875-0.58594 0.78125-0.875 1.8711-0.875 3.2656v7.5312h-4.8906v-15.312h4.8906v2.2344c0.73828-0.88281 1.5195-1.5391 2.3438-1.9688 0.83203-0.42578 1.75-0.64062 2.75-0.64062 1.7695 0 3.1133 0.54688 4.0312 1.6406 0.91406 1.0859 1.375 2.6562 1.375 4.7188z"/>
  </symbol>
  <symbol id="l" overflow="visible">
   <path d="m2.5781-20.406h8.7344c2.5938 0 4.582 0.57812 5.9688 1.7344 1.3945 1.1484 2.0938 2.7891 2.0938 4.9219 0 2.1367-0.69922 3.7812-2.0938 4.9375-1.3867 1.1562-3.375 1.7344-5.9688 1.7344h-3.4844v7.0781h-5.25zm5.25 3.8125v5.7031h2.9219c1.0195 0 1.8047-0.25 2.3594-0.75 0.5625-0.5 0.84375-1.2031 0.84375-2.1094 0-0.91406-0.28125-1.6172-0.84375-2.1094-0.55469-0.48828-1.3398-0.73438-2.3594-0.73438z"/>
  </symbol>
  <symbol id="k" overflow="visible">
   <path d="m2.3594-15.312h4.8906v15.031c0 2.0508-0.49609 3.6172-1.4844 4.7031-0.98047 1.082-2.4062 1.625-4.2812 1.625h-2.4219v-3.2188h0.85938c0.92578 0 1.5625-0.21094 1.9062-0.625 0.35156-0.41797 0.53125-1.2461 0.53125-2.4844zm0-5.9688h4.8906v4h-4.8906z"/>
  </symbol>
  <symbol id="j" overflow="visible">
   <path d="m14.719-14.828v3.9844c-0.65625-0.45703-1.3242-0.79688-2-1.0156-0.66797-0.21875-1.3594-0.32812-2.0781-0.32812-1.3672 0-2.4336 0.40234-3.2031 1.2031-0.76172 0.79297-1.1406 1.9062-1.1406 3.3438 0 1.4297 0.37891 2.543 1.1406 3.3438 0.76953 0.79297 1.8359 1.1875 3.2031 1.1875 0.75781 0 1.4844-0.10938 2.1719-0.32812 0.6875-0.22656 1.3203-0.56641 1.9062-1.0156v4c-0.76172 0.28125-1.5391 0.48828-2.3281 0.625-0.78125 0.14453-1.5742 0.21875-2.375 0.21875-2.7617 0-4.9219-0.70703-6.4844-2.125-1.5547-1.4141-2.3281-3.3828-2.3281-5.9062 0-2.5312 0.77344-4.5039 2.3281-5.9219 1.5625-1.4141 3.7227-2.125 6.4844-2.125 0.80078 0 1.5938 0.074219 2.375 0.21875 0.78125 0.13672 1.5547 0.35156 2.3281 0.64062z"/>
  </symbol>
 </defs>
 <g>
  <path d="m337.48 365.61c-2.1055-1.1758-4.2344-2.3906-6.1211-3.8789-8.7031-6.875-16.91-14.293-23.664-23.168-4.4023-5.7852-8.793-11.582-11.66-18.34-0.33594-0.78906-0.77734-1.5469-1.2539-2.2695-4.7148-7.1133-6.1953-15.328-7.8398-23.438-1.2031-5.9258-2.0117-11.938-2.7891-17.938-0.91406-7.0156-2.5469-13.957-2.4766-21.102 0.011719-1.3594-0.39844-2.7266-0.59375-4.0938-0.21094-1.5352-0.59766-3.0781-0.56641-4.6133 0.09375-4.7656-1.3047-9.1211-2.7734-13.609-1.8711-5.7188-5.7578-9.8281-9.7891-13.73-3.5742-3.457-7.7344-6.3516-12.555-8.1094-1.7539-0.63672-3.2969-1.832-4.9375-2.7617-1.1992-0.67578-2.4062-1.3477-3.6172-2.0117-3.8477-2.0938-8.0352-2.082-12.156-1.5742-4.0547 0.50391-7.4297-0.66016-10.734-2.8008-2.75-1.7734-5.5938-3.4609-8.5586-4.8555-2.2344-1.0469-4.1055-2.457-6.0039-3.9805-7.1562-5.7383-14.605-11.039-23.738-13.574-1.8828-7.9844-3.2188-16.195-7.0625-23.648-0.15625-0.30859-0.27344-0.63672-0.37891-0.96484-3.7344-10.988-8.5273-21.52-13.57-31.965-3.1484-6.5234-5.918-13.234-8.8594-19.863-0.14062-0.3125-0.30078-0.64453-0.33984-0.97266-0.39844-3.2812-2.6836-5.5547-4.3789-8.125-0.82812-1.2539-2.3906-1.5469-3.6562-0.76172-0.69922 0.4375-1.3477 1.0742-1.8125 1.7578-3.6836 5.4336-5.6328 11.414-5.6172 18.02 0.003906 2.7656-0.14453 5.5312-0.25781 8.3008-0.35156 8.6875 0.19141 17.277 2.5273 25.703 0.82812 2.9961 1.4844 6.043 2.1445 9.082 0.15625 0.71094 0.015625 1.4844 0.003906 3.1367-1.1406-1.332-1.7422-1.9141-2.1992-2.5859-3.8086-5.5664-7.7109-11.07-11.352-16.75-2.8164-4.4023-6.793-7.8125-9.7773-12.059-0.29297-0.41406-0.73828-0.72656-1.1523-1.0352-3.2812-2.4688-5.7578-1.9648-7.5156 1.6641-1.2812 2.6562-2.1914 5.3945-2.1172 8.457 0.13281 5.707 0.003906 11.418 0.015625 17.129 0.027343 10.484 1.6289 20.648 5.9766 30.289 1.707 3.7812 3.2031 7.6562 4.7656 11.504 0.30078 0.74609 0.45312 1.5391 0.95703 3.3047-1.6797-1.3945-2.6562-2.0312-3.4141-2.8672-2.7266-2.9922-6.1328-5.0586-9.5273-7.125-1.3008-0.78906-2.8164-1.3789-4.3047-1.6797-3.1406-0.62109-5.6094 1.1641-5.7734 4.3359-0.28125 5.3555-0.37891 10.73 1.1992 15.961 1.5 4.9727 3.1641 9.918 5.75 14.43 7.9961 13.957 15.859 28.012 27.254 39.641 0.51562 0.52734 0.87891 1.2031 1.6914 2.3477-1.1914-0.33203-1.6914-0.40234-2.1289-0.59766-7.8906-3.5391-15.508-7.6172-23-11.922-2.1172-1.2227-4.3945-2.0508-6.8984-1.9375-2.5586 0.11719-4.4453 1.5391-4.6406 4.0195-0.32422 4.1211-0.4375 8.1523 1.625 12.117 5.6562 10.879 12.762 20.531 22.355 28.258 0.80469 0.64844 1.625 1.293 2.4062 1.9766 0.60937 0.52734 1.5078 0.92969 0.96484 2.2852-1.7969 0-3.6953-0.11328-5.5781 0.023438-3.8867 0.28125-7.2109 3.2188-7.4219 6.7148-0.48828 8.2148 1.8047 15.211 8.4453 20.688 7.9414 6.5469 16.574 11.855 25.867 16.18 3.6797 1.7148 7.3906 3.3672 11.57 5.2578-2.0547 1.1602-3.9688 1.3789-5.7461 1.4766-7.4492 0.42578-14.684 2.1602-22.031 3.207-4.3438 0.62109-6.8828 3.6797-9.3906 6.793-0.30078 0.37891-0.42188 0.94141-0.51953 1.4375-0.96875 4.7109 0.042968 6.9961 4.2109 9.4531 0.89062 0.52734 1.7812 1.1016 2.75 1.4375 6.0273 2.0938 11.93 4.5742 18.355 5.2852 2.4023 0.26953 4.7812 0.73828 7.1562 1.2031 1.2539 0.24609 2.4688 0.67188 4.5703 1.2617-2.1445 0.76172-3.4102 1.25-4.7031 1.668-4.0547 1.3164-7.3867 3.6836-10.238 6.8203-3.2656 3.5898-2.6758 8.1719 1.7266 10.305 3.5547 1.7266 7.2852 3.2578 11.098 4.2266 5.6797 1.4375 11.418 2.8633 17.387 2.4648 1.0234-0.066406 2.082 0.039062 3.1016 0.20703 5.1523 0.84375 10.344 0.78906 15.527 0.78516 1.6523-0.003906 3.3047 0.12891 4.8477 0.19531 0.26172 1.2656-0.46094 1.6406-1.0234 1.8438-4.1211 1.4844-7.543 4.1719-11.223 6.4219-4.6484 2.8398-8.3828 6.5391-11.363 11.133-1.7852 2.7539-1.6016 5.582-1.0352 8.4609 0.16406 0.82812 1.1797 1.7422 2.0391 2.1406 3.7695 1.7695 7.668 3.1875 11.93 3.1797 2.9414-0.003906 5.8867 0.042969 8.8242-0.003906 1.8984-0.035156 3.875 0.11328 5.6797-0.37109 6.8438-1.8086 13.867-2.9961 20.445-5.7578 1.2031-0.50391 2.5273-0.73828 4.3516-1.2539-0.56641 1.2031-0.72266 1.8945-1.1328 2.3672-3.5625 4.1445-4.6914 9.5859-7.5781 14.09-0.17969 0.28125-0.21875 0.65625-0.30859 0.98438-0.85547 3.2305 1.0938 5.4805 4.457 5.0508 2.5664-0.33203 5.1641-0.59375 7.6602-1.2227 6.0352-1.5078 12.023-3.1914 18.027-4.832 0.66016-0.17969 1.2891-0.5 1.9023-0.8125 5.6992-2.8945 11.395-5.8008 17.09-8.7188 0.60938-0.3125 1.1719-0.72266 1.8555 0.40234-1.2422 2.0664-2.457 4.3516-3.9297 6.4609-2.5664 3.6914-5.3125 7.2578-7.9414 10.902-1.1094 1.5391-2.2461 3.0859-3.1289 4.7539-1.2266 2.3242 0.10156 4.4805 2.7891 4.8047 0.33984 0.039063 0.6875 0.027344 1.0352 0.042969 10.516 0.40234 19.699-3.1016 27.715-9.7148 4.25-3.5117 8.6289-6.9375 11.957-11.434 0.16797-0.22266 0.62109-0.23047 0.86719-0.3125-0.13281 4.7656-0.16406 9.5664-0.44922 14.348-0.16406 2.6484 1.0039 4.6602 2.4023 6.6523 0.73828 1.0547 1.7852 1.6055 3.0898 1.6016 2.0781-0.003906 4.168 0.13281 6.2266-0.0625 2.8516-0.27344 5.2812-1.5469 7.1055-3.8125 1.0859-1.3398 2.1602-2.6992 3.125-4.1289 3.2773-4.8711 6.4688-9.7344 8.2305-15.488 1.4609-4.7695 3.4883-9.375 4.6133-14.273 0.11328-0.50391 0.37109-0.96875 0.52734-1.4688 0.54687-1.7148 1.3984-2.9844 3.3203-3.6055 2.6211-0.85156 4.0586-2.9453 5.0625-5.5234 2.1602-5.5547 2.8711-11.344 3.125-17.219 0.10547-2.4141-0.15234-4.8477-0.035156-7.2617 0.20703-4.1992-0.10547-8.2773-2.1055-12.078-0.14062-0.26953-0.023437-0.67188-0.023437-0.95312 0.94141-1.8711 1.8984-3.6914 2.7773-5.543 0.63672-1.3555 0.47656-2.7344-0.37109-3.9414-1.5625-2.2695-3.1133-4.5391-5.6406-5.9492zm-100.54-156.4c3.5039 0.8125 7.1562 1.3164 10.426 2.6992 2.3477 0.99219 4.6328 2.1953 7.0273 3.1797 5.5117 2.2578 9.9961 5.8867 14.105 10.258 3.7461 3.9805 5.375 8.7812 6.957 13.691 0.51562 1.5898 0.54297 3.4102 0.44141 5.1016-0.17969 2.9453-0.42578 5.8633 0.33594 8.7695 0.17188 0.66016 0.23047 1.3789 0.20312 2.0625-0.30859 8.0234 1.668 15.805 2.4883 23.703 0.5 4.8164 1.2539 9.6055 1.7266 14.426 0.69922 7.2812 2.8672 14.223 4.7031 21.242 0.30078 1.1484 0.96484 2.2188 1.5234 3.2891 0.88672 1.6875 1.9766 3.2695 2.7266 5.0117 3.6836 8.5195 9.3477 15.758 14.992 22.965 2.4375 3.1094 5.4883 5.7461 8.3672 8.4844 2.5039 2.3867 5.2188 4.5547 7.7344 6.9219 3.6719 3.4648 7.7383 6.3789 12.203 8.7148 2.4141 1.2656 4.3242 2.8438 4.7148 5.8672-0.21094 0.35156-0.35938 0.97266-0.73438 1.1797-7.5391 4.1094-15.27 6.3555-23.613 2.2773-1.0859-0.53125-2.1953-1.0703-3.3555-1.3789-6.3906-1.707-11.289-5.9375-16.238-9.9023-2.9062-2.3281-5.0391-5.6289-7.5039-8.5078-0.67188-0.78516-1.2148-1.6914-1.9336-2.4258-6.8594-7.0234-11.375-15.562-15.812-24.176-3.6562-7.0938-6.8555-14.387-8.875-22.086-3.0234-11.523-6.1484-23.043-6.418-35.105-0.074218-3.2305-0.18359-6.5469-1.8711-9.5703-0.53906-0.96875-0.39844-2.3633-0.42188-3.5625-0.14453-7.957-0.3125-15.914-0.33203-23.867-0.003906-2.3359-0.42969-4.418-1.7305-6.3672-4.3047-6.4727-8.5898-12.965-12.859-19.461-0.54297-0.82813-0.96875-1.7344-1.8477-3.3203 1.5508-0.0625 2.25-0.25781 2.8711-0.11328zm73.836 174.11c-0.69531 6.1328-1.3906 12.074-2.0391 18.02-0.39844 3.6562-1.5898 7.0625-3.0977 10.383-1.0352 2.2891-2.9102 3.7852-5.1914 5.4883-4.8594-2.0039-6.9766-5.9688-8.8359-10.039-1.2148-2.6562-2.0234-5.5-2.9922-8.2656-0.28516-0.8125-0.66016-1.6445-0.70703-2.4805-0.42969-7.7461-1.1016-15.52 1.4219-23.078 0.09375-0.28516 0.46875-0.47656 0.98437-0.96484 1.0547 0.44922 2.3789 0.79688 3.4648 1.5195 2.7344 1.8125 5.2148 4.043 8.0586 5.6328 2.8281 1.5547 5.9727 2.5547 8.9336 3.7852zm-87.723-127.41c3.0898-1.8594 6.1719-3.7031 9.7812-4.5938 1.9609-0.48047 3.7617-1.7148 5.5508-2.7617 1.8125-1.0586 3.707-1.6641 5.9688-1.9922 1.2031 3.0391 0.41406 6.0039 0.68359 8.8555 0.27344 2.918 0.55469 5.8359 0.82422 8.7031-1.6562 2.6992-3.2578 5.3477-4.918 7.9688l-11.977 8.9336c-1.4102 0.90234-3.1875 1.6445-4.8281 1.707-7.9336 0.28125-15.938 0.81641-23.625-1.9219-2.7344-0.97266-5.3555-2.2617-8.1523-3.4648 0.19141-0.86719 0.17969-1.6133 0.50391-2.1445 2.3633-3.8398 4.9297-7.4648 9.3906-9.2109 1.4336-0.56641 2.7227-1.4961 4.0781-2.25 0.90234-0.50391 1.7578-1.2891 2.7148-1.457 5.2344-0.93359 9.5781-3.7109 14.004-6.3711zm-5.2539-5.2148c-2.3789-0.39062-4.7891-0.65625-7.1289-1.1914-2.1602-0.5-4.3672-1.0469-6.3672-1.9805-4.6797-2.1836-9.4766-4.2578-13.484-7.6211-1.7031-1.4297-3.207-3.1016-4.7109-4.7539-1.1406-1.2617-1.2422-2.7812-0.51953-4.5977 0.87891-0.10547 1.8711-0.32422 2.8633-0.33594 3.2812-0.042969 6.5703-0.12891 9.8398 0.011719 4.9727 0.21094 9.8828 1.1367 14.918 0.97266 2.2852-0.074219 4.6211 1.0977 7.0859 1.0703 6.043-0.066407 12.086 0.011718 18.121 0.027343h3.3359c2.4141 3.125 2.6992 6.3047 2.3867 9.4922-0.3125 0.42578-0.46094 0.82422-0.72266 0.94531-5.5898 2.6055-10.859 5.9453-16.883 7.5469-2.8672 0.76953-5.793 0.89062-8.7344 0.41406zm5.0234 38.406c1.0977-1.5742 2.2852-3.1367 4.3242-3.4727 7.3789-1.2266 13.234-5.4883 19.09-9.5977 1.2695 0.48828 0.78516 1.4883 0.86719 2.2383 0.5 4.457 0.86328 8.9375 1.4492 13.383 0.26172 1.9766 0.23047 3.7305-1.0234 5.3867-1.5586 2.0508-3 4.1836-4.4961 6.2773-0.10156 0.14063-0.27344 0.23047-0.35156 0.375-4.0938 7.2344-11.648 9.9453-18.219 13.934-0.4375 0.26172-0.92969 0.55469-1.4102 0.58984-4.3281 0.28516-8.6445 0.38672-12.59-1.8828-0.42578-0.24609-0.73828-0.68359-1.2109-1.1328 0.46875-4.8438 1.7656-9.4375 4.5859-13.492 2.0664-2.9688 4.2852-5.8281 6.4023-8.7656 0.89453-1.2461 1.6953-2.5703 2.582-3.8398zm9.6094 43.742c2.1602-6.4297 5.6602-12.203 8.9531-18.055 2.3594-4.1953 5.9258-7.4688 9.5742-11.457 1.4883 4.2578 2.6367 7.9922 4.0938 11.602 1.418 3.5156 3.0742 6.9453 4.7656 10.348 1.7539 3.5352 3.668 6.9883 5.5938 10.629-1.3906 1.0625-2.7656 1.8086-3.707 2.9297-0.98047 1.1641-1.5586 2.6641-2.2734 4.043-1.2266 2.3633-3.1289 4.0938-5.1562 5.7383-1.4727 1.1914-3.0977 2.25-4.3633 3.6406-3.0625 3.3594-6.9453 5.6797-10.457 8.457-2.6953 2.1328-5.957 1.9141-8.9023 0.89062-2.3008-0.79688-3.9258-2.6562-3.9922-5.5-0.16797-7.0273 1.2148-13.68 4.4062-19.957 0.55078-1.0742 1.0859-2.1719 1.4648-3.3086zm33.555 14.539c0.28125-1.8438 0.73438-3.6523 1.2383-6.082 6.3125 9.1562 11.121 18.535 18.223 26.746-2 9.0391-5.918 17.297-11.727 24.543-3.8633 0.99609-7.0547 0-9.9727-2.1211-2.0312-1.4727-3.543-3.4727-3.707-5.9531-0.20703-3.0703-0.34766-6.1484 0.46094-9.25 2.3672-9.1797 4.0469-18.512 5.4844-27.883zm-82.527-163.07c0.47656-0.53125 1.625-0.86719 2.3359-0.70703 1.4727 0.33984 2.9805 0.875 4.25 1.6758 6.2773 3.9414 12.785 7.5586 18.211 12.738 1.1016 1.0547 2.5273 1.8086 3.8867 2.5352 3.0352 1.625 6.1133 3.1641 9.1914 4.7109 2.2891 1.1523 4.6016 2.2734 7.1719 3.5391 0.24609 3.1602 1.6797 5.9375 3.9258 8.5078 1.9102 2.1914 3.2695 4.8594 4.8164 7.3594 0.33203 0.52734 0.41406 1.2109 0.71875 2.1445-1.3281 0.11719-2.3086 0.28125-3.293 0.28516-4.4922 0.027344-8.9883-0.042968-13.473 0.039063-2.4688 0.042969-4.793-0.40234-7.0781-1.2812-2.7344-1.0547-5.5-2.0391-8.2305-3.0977-0.96484-0.375-1.9531-0.75781-2.7773-1.3477-3.3477-2.4258-6.7461-4.8047-9.9297-7.4414-4.9727-4.1211-8.043-9.3594-8.7812-15.902-0.33984-3.0391-0.23438-6.1602-2.0234-8.9883-0.97656-1.5547-0.097656-3.4375 1.0781-4.7695zm-39.086-70.66c-0.24219-4.9492 1.0742-9.5859 2.4805-14.223 0.12891-0.42969 0.64844-0.73828 1.0117-1.1367 1.7461 0.90234 2.3359 2.4688 2.9414 4.0977 0.89453 2.4258 1.9336 4.8008 2.9336 7.1797 0.33594 0.79688 0.77734 1.5469 1.1211 2.3398 5.3047 12.195 10.641 24.375 15.883 36.602 2.5156 5.875 4.9336 11.793 7.2227 17.758 1.418 3.7031 2.5273 7.5273 3.7344 11.312 0.42969 1.3555 0.42188 2.6367-0.44141 3.9414-3.4492 5.1953-2.7109 10.809-1.5508 16.48 0.71875 3.5 1.2383 7.0352 1.8594 10.641-4.1562-0.91797-6.7656-3.4062-9.1953-6.5078-5.6055-7.1445-9.9102-14.969-13.266-23.363-2.3125-5.7773-4.7656-11.504-6.9453-17.328-1.2031-3.2266-2.0781-6.5859-2.9414-9.9297-1.5469-6.0195-3.5938-11.93-4.0586-18.188-0.17969-2.4062-0.49219-4.8086-0.57031-7.2227-0.13672-4.1523-0.023438-8.3086-0.21875-12.453zm-22.895 68.078c-3.9375-8.4688-5.375-17.457-5.5781-26.684-0.125-5.5273-0.085938-11.059-0.10156-16.594-0.003906-1.8945-0.19141-3.832 1.2305-5.7891 0.60547 0.39063 1.3398 0.70703 1.8633 1.2305 6.4844 6.5742 10.617 14.863 16 22.242 2.4453 3.3555 4.9453 6.6133 7.8516 9.6094 2.9922 3.0859 5.6562 6.5117 8.2812 9.9297 0.91797 1.1914 1.3047 2.8008 1.9102 4.2266 2.6758 6.3711 5.2695 12.797 9.4023 18.418 2.5547 3.4844 5.1797 6.9102 7.8867 10.281 0.72656 0.90625 1.7422 1.7734 2.8047 2.1953 3.5117 1.3828 7.0859 2.625 10.672 3.7734 2.3086 0.73828 4.5625 1.3828 6.4219 3.1289 1.3711 1.2812 3.1367 2.1445 4.6523 3.2812 1.1914 0.89453 2.2773 1.9375 3.4141 2.9102-0.14453 0.35156-0.29297 0.71094-0.44141 1.0625-2.2227 0-4.4453-0.003906-6.668 0.003906-2.0703 0.003907-4.1484 0.11328-6.2227 0.015625-3.3477-0.15234-4.8594 1.4062-4.8906 5.0625-0.027344 3.5898 0.36328 6.875 2.957 9.4141-0.35156 0.39844-0.66797 0.85156-0.73828 0.81641-5.875-2.8906-11.766-5.7461-17.578-8.7578-5.0859-2.6328-9.6445-6.0664-13.984-9.7891-2.2305-1.9141-4.3945-3.9023-6.6758-5.7617-8.5-6.9258-14.332-15.805-18.82-25.66-1.2852-2.8164-2.3359-5.75-3.6484-8.5664zm9.7656 71.781c-0.71094-0.93359-1.8633-1.5273-2.7773-2.3125-2.1055-1.8125-3.9609-3.8203-5.2188-6.3633-0.76172-1.5352-1.7422-2.9844-2.7656-4.3672-4.7617-6.3945-8.9531-13.109-12.086-20.473-0.59766-1.4102-1.5078-2.7148-2.4062-3.9648-4.3906-6.0352-4.7266-12.809-3.6328-19.824 0.21094-1.3672 0.67578-2.7109 2.4414-3.4219 3.6523 1.1875 6.7969 3.543 9.5938 6.3711 4.8672 4.9102 9.7812 9.7656 15.266 14.004 1.6289 1.2617 3.3438 2.418 4.957 3.6953 3.7852 2.9961 7.6445 5.918 11.289 9.082 8.8438 7.668 18.75 13.48 29.656 17.672 3.6016 1.3828 7.2109 2.3789 11.09 1.9375 1.9883-0.22266 3.6328 0.36328 5.3711 1.3477 3.7461 2.1328 7.6172 4.0547 11.508 5.9258 1.3711 0.66016 2.918 1.0039 4.4258 1.3203 2.1289 0.45312 4.2891 0.75781 6.625 1.1523-0.90234 1.9531-2.582 2.3125-3.9922 2.3789-2.5469 0.12891-4.6211 1.2109-6.7422 2.3789-1.5078 0.82812-3.1289 1.4375-4.6875 2.1914-4.8164 2.3203-8.5664 5.7227-10.812 10.656-0.28516 0.62891-0.53906 1.2812-0.70703 1.9492-1.082 4.2891 0.12891 6.418 4.3438 7.8555 1.875 0.63672 4.0781 0.41016 6.1992 2.3203-1.3789 0.089843-2.1797 0.28516-2.9414 0.16797-2.9023-0.44922-5.8281-0.8125-8.668-1.5273-12.09-3.0586-23.852-6.9766-34.344-13.996-0.57031-0.37891-1.1641-0.92969-1.793-0.99609-2.5938-0.26953-4.1953-2.1523-6.2266-3.4141-5.0742-3.1328-9.3633-7.0156-12.965-11.746zm-10.297 33c-6.9102-6.8164-12.812-14.52-16.906-23.457-1.1406-2.5039-1.1094-4.9766-0.57812-7.4805 1.6445-0.67578 2.8516 0.17188 4.043 0.80078 2.1445 1.1211 4.1953 2.4141 6.3398 3.5273 7.5078 3.9102 14.969 7.9258 22.598 11.598 4.0156 1.9375 8.3281 3.2539 12.504 4.8555 2.5742 0.98438 5.2852 1.7188 7.6875 3.0312 8.1328 4.4453 16.852 7.2344 25.828 9.1406 9.1836 1.9492 18.508 2.5469 27.816 0.66797 2.5039-0.50391 4.9375-1.3398 7.7383-2.1055-0.089843 0.75 0.015625 1.3281-0.21094 1.5508-6.5898 6.3672-11.324 13.867-13.922 22.902-1.1602 0.32031-2.2734 0.75781-3.4258 0.91797-8.1055 1.1406-16.223 1.3984-24.27-0.24219-12.234-2.4961-24.109-6.125-35.078-12.273-0.75781-0.42187-1.5195-0.84375-2.3242-1.1523-6.9492-2.6406-12.684-7.1992-17.84-12.281zm11.383 41.609c-3.3594-2.0664-6.3828-4.7383-9.3359-7.3906-3.8086-3.4219-5.4922-7.8633-5.2734-12.988 0.09375-2.207 0.96875-3.4766 2.9297-3.6172 4.9883-0.34766 10.113-0.96875 14.84 1.1211 7.75 3.4219 15.836 5.8359 23.93 8.1602 6.9453 2 14.016 3.9297 21.164 4.7266 7.1523 0.78906 14.488 0.82813 21.695-0.46094 0.33203-0.0625 0.68359-0.003906 1.0625-0.003906 6.6406 6.4336 14.789 6.3672 23.348 5.5625-0.37891 0.53906-0.72266 1.2617-1.2656 1.7578-2.582 2.3672-4.6992 5.0469-5.9141 8.3789-0.17969 0.48047-0.35156 1.0312-0.69922 1.3711-4.9492 4.8438-10.047 9.4648-17.27 10.629-5.1289 0.82812-10.258 1.1719-15.477 0.875-7.1055-0.41016-13.965-2.0117-20.914-3.3164-12.215-2.293-22.539-8.4883-32.82-14.805zm22.367 46.207c-1.8633-0.29297-3.7305-0.62891-5.5703-1.0352-1.0078-0.22266-1.9648-0.85547-2.9609-0.90625-3.0391-0.15625-5.6211-1.5352-8.3047-2.7266-2.9727-1.3203-5.7461-3.0195-8.8555-4.1172-3.332-1.1758-3.4375-3.6719-0.5-5.7109 0.95313-0.66016 2.1445-1.1367 3.293-1.3438 6.793-1.2422 13.578-2.4531 20.461-3.2148 6.8672-0.76172 13.664-2.1602 20.52-3.0117 4.0977-0.50781 8.2656-0.74609 12.398-0.68359 5.3828 0.085937 10.754 0.20703 16.031-0.89453 3.0234-0.62891 6.0977-1.3945 8.8867-2.6758 2.2891-1.0547 4.4297-2.7344 6.1992-4.5586 1.6562-1.707 2.9219-3.7578 4.8828-5.2695 1.0195-0.78906 1.5977-2.1953 2.2773-3.375 1.2617-2.1797 2.2383-4.5742 5.0625-6.0859-0.14453 2.5352-1.293 4.2344-2.1094 6.0938-3.5 7.9805-6.1992 16.129-4.1484 25.047 0.40234 1.7461 0.023437 3.2148-0.98438 4.8398-2.3789 3.832-6.125 5.4141-10.012 6.9141-2.4023 0.92578-4.8828 1.7148-7.1641 2.8828-1.9258 0.99219-3.9102 1.4336-5.9766 1.4883-7.957 0.21875-15.922 0.55859-23.871 0.41406-4.9766-0.09375-9.9414-0.99219-14.906-1.5273-1.5625-0.17578-3.1133-0.30469-4.6484-0.54297zm38.074 26.148c-8.6289-0.32031-17.281-0.45312-25.879-1.2109-6.8828-0.60547-13.625-2.2734-19.848-5.5234-0.55469-0.29297-0.94531-0.88672-1.5469-1.4727 1.9258-3.2188 4.4297-5.4766 7.7578-6.707 4.3672-1.625 8.7656-3.1992 13.211-4.582 1.4297-0.44141 3.0625-0.27344 4.6016-0.25391 9.1562 0.13281 18.328 0.49219 27.457-0.44141 5.6836-0.58203 11.297-1.7695 16.543-4.0156 6.8828-2.9531 6.8047-3.125 11.234-8.7031 3.4844-0.20703 6.5781-0.29688 9.6562-0.60938 2.4297-0.24609 4.6797-1.0938 6.6133-2.7031 3.707-3.0977 7.7734-5.7383 11.16-9.2578 1.8828-1.9492 4.2461-3.4336 6.2734-5.0273 0.375 0.074219 0.59375 0.054688 0.68359 0.15234 0.10156 0.11328 0.13281 0.33203 0.11328 0.49219-0.30078 2.2188-0.58203 4.4414-0.94531 6.6523-0.28125 1.7031-0.89453 3.3711-0.99219 5.0781-0.24609 4.5742-2.4414 8.2383-5.1914 11.621-2.0664 2.543-4.1484 5.1406-6.6133 7.2617-3.1289 2.6875-6.4297 5.3867-10.09 7.2031-3.9141 1.9336-7.4219 4.3945-11.027 6.7383-2.4922 1.6172-5.0742 2.7422-7.9688 3.5391-4.8906 1.3477-9.7734 2.0273-14.836 1.8203-3.4492-0.13672-6.918 0.078125-10.367-0.050782zm30.508 25.629c-7.6328 2.8125-15.406 5.1445-23.375 6.7148-5.9688 1.1758-12.012 1.0703-18.008-0.027343-1.707-0.3125-3.3438-0.8125-4.8711-2.625 1.1133-3.3438 2.8047-6.1211 5.4102-8.1914 4.457-3.5508 8.9531-7.0117 14.258-9.3398 4.4141-1.9375 8.6133-4.3672 12.945-6.4961 1.2266-0.60547 2.5664-1.0039 3.8867-1.3711 1.6641-0.46875 3.3438-0.89062 5.0391-1.2031 3.6289-0.67578 6.8555-2.1523 9.8945-4.2734 3.5352-2.4648 6.9844-5.0625 11.059-6.6992 1.5508-0.62109 2.8047-1.9805 4.207-2.9961 1.2617-0.91406 2.4648-1.9219 3.8008-2.6992 1.9648-1.1406 3.7031-2.4023 4.9766-4.3867 0.79688-1.2305 2.1289-2.1172 3.5273-3.4492 1.0234 1.7852 0.69531 3.3438 0.66797 4.7891-0.078125 3.9883 0.074219 7.875 1.7461 11.637 1.0469 2.3594 0.37891 4.7695-1.2773 6.7305-0.87891 1.0352-2.0273 1.8594-3.1016 2.7227-0.66797 0.53906-1.6875 0.8125-2.082 1.4766-2.6953 4.5352-7.5938 6.3633-11.434 9.4688-1.3398 1.082-2.7617 2.0625-4.1367 3.0898-4.0312 3.0117-8.3945 5.3867-13.133 7.1289zm36.664 9.6211c-4.043 2.3125-8.3086 4.25-12.492 6.3125-1.2383 0.60938-2.5078 1.1992-3.8242 1.5898-4.8008 1.4336-9.6211 2.7891-14.441 4.1445-2.1562 0.60937-4.3359 0.79687-6.8047 0.16406 1.9414-5.4023 4.2461-10.348 7.8633-14.598 0.67188-0.78906 1.5078-1.4727 2.0391-2.3398 2.3984-3.9258 6.0039-6.6211 9.5586-9.3242 3.0195-2.2969 6.1719-4.4258 9.3906-6.4336 2.1445-1.3398 3.6719-3.1016 4.8672-5.2539 2.3516-4.2266 5.3125-8.0117 8.0469-11.531 2.9609 0 5.5391-0.039062 8.1133 0.003907 2.7891 0.050781 5.0234-0.84375 6.6523-3.2422 0.95313-1.3984 2.1836-2.6133 3.7227-4.4258 0.48047 3.3047 0.6875 6.0195 1.3086 8.6406 0.59766 2.5078 1.6289 4.9102 2.457 7.3359-0.60938 1.8633-1.0234 3.7422-1.8242 5.4375-1.4688 3.1133-2.9609 6.2539-5.8203 8.4375-0.54297 0.42188-1.0625 0.91406-1.457 1.4727-4.4062 6.2891-10.926 9.9297-17.355 13.609zm38.449-3.9375c-2.8516 3.8984-5.6211 7.8555-8.6641 11.609-1.6055 1.9883-3.6719 3.6133-5.5703 5.3555-1.0117 0.92969-2.1523 1.7266-3.1641 2.6602-5.6406 5.2188-12.363 8.043-19.891 9.1055-0.3125 0.042969-0.66016-0.12891-1.7148-0.35938 1.4727-2.1836 2.7344-4.0039 3.9375-5.8594 1.2227-1.8828 2.4414-3.7695 3.5742-5.707 1.125-1.9336 2.1328-3.9375 3.2188-5.8984 1.1641-2.1055 2.3516-4.1992 3.5547-6.2812 0.34766-0.59375 0.89453-1.0859 1.1641-1.707 2.082-4.8281 5.5938-8.5625 9.1094-12.344 2.082-2.2461 3.7578-4.8711 5.7734-7.5391 3.2773 3.1797 6.0742 7.4414 11.574 7.5156-0.72266 2.6875-1.3555 5.1406-2.0508 7.582-0.16797 0.66797-0.45312 1.3242-0.85156 1.8672zm25.953 4.8086c-1.0469 2.1797-2.1797 4.3281-3.0586 6.5781-2.3633 6.0664-6.25 11.121-10.477 15.934-0.85547 0.97266-2.1562 1.8086-3.4062 2.1602-3.7578 1.0625-5.2422-0.09375-5.9258-4.0156-0.90625-5.1914-0.24609-10.367 0.46094-15.457 0.78516-5.6172 2.3398-11.129 3.4375-16.703 0.35938-1.8125 0.33203-3.7031 0.48828-5.7109 5.9141-5.6172 6.8438-13.402 8.3945-21.711 4.4336 9.5742 7.6562 19.152 15.012 26.527-1.1602 4.3203-2.9961 8.3711-4.9258 12.398zm12.469-28.52c-0.45312 1.8125-0.375 3.7617-0.51562 5.6562-0.050781 0.68359 0.039063 1.3906-0.078125 2.0547-0.23047 1.2891-0.98047 2.1797-2.2578 2.5742-1.3086 0.41016-2.4766 0.015625-3.2461-0.99219-1.7734-2.3281-3.5625-4.6719-5.0977-7.168-4.8086-7.8164-8.3789-16.18-10.574-25.395 3.6445 0.24219 7.2305 0.44141 10.809 0.72266 3.4883 0.26953 6.7812-0.52734 9.8789-2.1719 1.6797 2.4766 2.2188 4.7617 2.1719 7.207-0.10938 5.8516 0.35156 11.727-1.0898 17.512z" fill-rule="evenodd"/>
  <path d="m575.43 296.33c0.78516-0.67578 1.6016-1.3203 2.4062-1.9766 9.5938-7.7266 16.703-17.375 22.355-28.258 2.0625-3.9688 1.9531-8.0039 1.625-12.117-0.19531-2.4805-2.0781-3.9023-4.6367-4.0195-2.5078-0.11328-4.7812 0.71875-6.9062 1.9375-7.4922 4.3125-15.102 8.3906-23 11.922-0.4375 0.19531-0.93359 0.26953-2.1289 0.59766 0.8125-1.1367 1.1719-1.8203 1.6914-2.3477 11.395-11.625 19.258-25.688 27.254-39.641 2.582-4.5078 4.25-9.4531 5.75-14.43 1.5781-5.2305 1.4766-10.605 1.1992-15.961-0.16797-3.168-2.6328-4.957-5.7734-4.3359-1.4961 0.29688-3.0078 0.89062-4.3047 1.6797-3.3945 2.0664-6.7969 4.1328-9.5273 7.125-0.76172 0.83594-1.7344 1.4727-3.4141 2.8672 0.50391-1.7656 0.65625-2.5664 0.95703-3.3047 1.5625-3.8398 3.0586-7.7188 4.7656-11.504 4.3438-9.6445 5.9453-19.809 5.9766-30.289 0.015625-5.7109-0.11328-11.426 0.015625-17.129 0.074219-3.0703-0.83594-5.8086-2.1172-8.457-1.7539-3.6289-4.2266-4.1328-7.5156-1.6641-0.41406 0.3125-0.86719 0.62109-1.1523 1.0352-2.9805 4.2383-6.957 7.6562-9.7734 12.059-3.6328 5.6797-7.5391 11.184-11.352 16.75-0.46094 0.67187-1.0586 1.25-2.1992 2.5859-0.011719-1.6523-0.15234-2.4258 0.003906-3.1367 0.66016-3.0391 1.3086-6.0859 2.1445-9.082 2.3398-8.4297 2.8789-17.02 2.5273-25.703-0.11328-2.7656-0.25781-5.5312-0.25781-8.3008 0.015625-6.6094-1.9375-12.59-5.6172-18.02-0.46484-0.6875-1.1094-1.3281-1.8125-1.7578-1.2656-0.78516-2.8281-0.49219-3.6562 0.76172-1.7031 2.5703-3.9805 4.8438-4.3789 8.125-0.039063 0.33594-0.20703 0.66016-0.34766 0.97266-2.9414 6.6289-5.707 13.34-8.8594 19.863-5.0391 10.445-9.8281 20.977-13.562 31.965-0.11328 0.33203-0.23047 0.66016-0.37891 0.96484-3.8398 7.4531-5.1797 15.668-7.0625 23.648-9.1328 2.5352-16.582 7.8281-23.738 13.574-1.8984 1.5234-3.7695 2.9336-6.0039 3.9805-2.9609 1.3945-5.8008 3.0781-8.5586 4.8555-3.3047 2.1328-6.6797 3.3047-10.734 2.8008-4.1211-0.51562-8.3164-0.51953-12.156 1.5742-1.2109 0.66016-2.418 1.332-3.6172 2.0117-1.6445 0.92969-3.1914 2.1211-4.9453 2.7617-4.8203 1.7578-8.9883 4.6523-12.555 8.1094-4.0391 3.9102-7.9258 8.0117-9.793 13.73-1.4688 4.4844-2.8672 8.8438-2.7734 13.609 0.027343 1.5352-0.35156 3.0781-0.56641 4.6133-0.19531 1.3672-0.60547 2.7344-0.59375 4.0938 0.074219 7.1445-1.5625 14.086-2.4766 21.102-0.78516 6.0039-1.5898 12.012-2.7891 17.938-1.6445 8.1133-3.1289 16.328-7.8398 23.438-0.47656 0.71875-0.92578 1.4727-1.2617 2.2695-2.8672 6.7656-7.2578 12.555-11.66 18.34-6.7539 8.875-14.965 16.285-23.664 23.168-1.8867 1.4883-4.0156 2.7031-6.1211 3.8789-2.5273 1.4102-4.0781 3.6836-5.6523 5.9453-0.83984 1.2109-1.0078 2.5859-0.37109 3.9414 0.87891 1.8594 1.8359 3.6797 2.7734 5.543 0 0.28516 0.125 0.6875-0.015625 0.95312-2 3.8086-2.3086 7.8789-2.1055 12.078 0.11719 2.4141-0.13281 4.8477-0.035157 7.2617 0.25781 5.875 0.96484 11.66 3.125 17.219 1.0039 2.5742 2.4414 4.6719 5.0625 5.5234 1.9219 0.62891 2.7734 1.8945 3.3203 3.6055 0.15625 0.49219 0.41016 0.96484 0.52734 1.4688 1.125 4.8945 3.1602 9.4961 4.6133 14.273 1.7656 5.7578 4.957 10.617 8.2305 15.488 0.96484 1.4297 2.0391 2.7891 3.125 4.1289 1.8242 2.2617 4.2578 3.5391 7.1055 3.8125 2.0625 0.19531 4.1484 0.054688 6.2266 0.0625 1.3086 0.003906 2.3516-0.54688 3.0898-1.6016 1.3984-1.9922 2.5586-4 2.3984-6.6523-0.29297-4.7812-0.3125-9.582-0.44922-14.348 0.24609 0.085937 0.69922 0.089843 0.86719 0.3125 3.3281 4.5039 7.707 7.9258 11.957 11.434 8.0117 6.6133 17.199 10.121 27.715 9.7148 0.34766-0.015625 0.69531-0.003906 1.0352-0.042969 2.6875-0.32031 4.0156-2.4766 2.7891-4.8047-0.87891-1.6758-2.0234-3.2148-3.1289-4.7539-2.625-3.6523-5.3711-7.2188-7.9414-10.902-1.4688-2.1094-2.6836-4.3945-3.9297-6.4609 0.68359-1.125 1.2422-0.71875 1.8555-0.40234 5.6914 2.918 11.387 5.8242 17.09 8.7188 0.61719 0.3125 1.2422 0.63281 1.9023 0.8125 6.0039 1.6406 11.988 3.3281 18.027 4.832 2.4961 0.62109 5.0977 0.89062 7.6602 1.2227 3.3672 0.42969 5.3125-1.8203 4.457-5.0508-0.089844-0.33594-0.12891-0.70703-0.30859-0.98438-2.8906-4.5039-4.0156-9.9453-7.5781-14.09-0.41016-0.47656-0.57031-1.1641-1.1367-2.3672 1.8242 0.51562 3.1484 0.75 4.3516 1.2539 6.5781 2.7617 13.602 3.9492 20.445 5.7578 1.8047 0.47656 3.7734 0.33594 5.6719 0.37109 2.9414 0.050781 5.8789 0 8.8242 0.003906 4.2617 0.003906 8.1602-1.4102 11.93-3.1797 0.85156-0.39844 1.875-1.3086 2.0391-2.1406 0.56641-2.8789 0.75-5.707-1.0352-8.4609-2.9727-4.5938-6.707-8.2891-11.363-11.133-3.6797-2.2461-7.0938-4.9336-11.223-6.4219-0.57031-0.20703-1.2891-0.58203-1.0234-1.8438 1.5469-0.066407 3.1992-0.20312 4.8477-0.19531 5.1914 0.011719 10.383 0.066406 15.527-0.78516 1.0195-0.16797 2.0781-0.27344 3.1016-0.20703 5.9688 0.39062 11.715-1.0234 17.387-2.4648 3.8125-0.96875 7.5469-2.5039 11.098-4.2266 4.3945-2.1328 4.9883-6.7148 1.7266-10.305-2.8516-3.1367-6.1836-5.5039-10.238-6.8203-1.293-0.42187-2.5586-0.90625-4.7031-1.668 2.1016-0.58984 3.3164-1.0117 4.5703-1.2617 2.375-0.46484 4.7617-0.93359 7.1641-1.2031 6.4297-0.71094 12.336-3.1914 18.355-5.2852 0.96875-0.33594 1.8594-0.91406 2.75-1.4375 4.168-2.457 5.1875-4.7422 4.2109-9.4531-0.10156-0.5-0.21875-1.0586-0.51953-1.4375-2.5039-3.1211-5.0469-6.1758-9.3867-6.793-7.3477-1.0547-14.59-2.7812-22.031-3.207-1.7734-0.10156-3.6836-0.32422-5.7383-1.4766 4.1758-1.8984 7.8906-3.543 11.57-5.2578 9.2891-4.3242 17.926-9.6328 25.867-16.18 6.6406-5.4766 8.9336-12.477 8.4453-20.688-0.20703-3.4961-3.5352-6.4336-7.4219-6.7148-1.8867-0.13281-3.7852-0.023437-5.5781-0.023437-0.51953-1.3516 0.375-1.7539 0.98828-2.2812zm10.18-97.168c2.793-2.8281 5.9414-5.1875 9.5977-6.3711 1.7578 0.71094 2.2305 2.0547 2.4375 3.4219 1.0938 7.0234 0.75781 13.789-3.6328 19.824-0.90625 1.25-1.8086 2.5586-2.4062 3.9648-3.1289 7.3633-7.3242 14.074-12.086 20.473-1.0234 1.3828-2.0039 2.8281-2.7656 4.3672-1.2617 2.543-3.1133 4.5469-5.2188 6.3633-0.91406 0.78906-2.0664 1.3828-2.7773 2.3125-3.6016 4.7305-7.8945 8.6133-12.965 11.762-2.0273 1.2617-3.6289 3.1406-6.2266 3.4141-0.62891 0.0625-1.2227 0.61719-1.793 0.99609-10.488 7.0156-22.25 10.938-34.344 13.996-2.8398 0.71875-5.7695 1.082-8.668 1.5273-0.75781 0.11719-1.5625-0.078126-2.9336-0.16797 2.1172-1.9102 4.3242-1.6797 6.1992-2.3203 4.2188-1.4375 5.4219-3.5664 4.3438-7.8555-0.16797-0.66797-0.42188-1.3203-0.70703-1.9492-2.2383-4.9336-5.9961-8.3398-10.809-10.656-1.5508-0.75-3.1797-1.3555-4.6797-2.1914-2.1211-1.1719-4.1875-2.2578-6.7422-2.3789-1.4102-0.066406-3.0898-0.42578-3.9922-2.3789 2.3359-0.39844 4.4961-0.69531 6.625-1.1523 1.5078-0.32031 3.0508-0.66797 4.4258-1.3203 3.8867-1.8711 7.7617-3.793 11.508-5.9258 1.7344-0.98437 3.3828-1.5742 5.3711-1.3477 3.875 0.44141 7.4883-0.55469 11.09-1.9375 10.91-4.1953 20.816-10.008 29.656-17.672 3.6523-3.1641 7.5039-6.0859 11.289-9.082 1.6172-1.2773 3.3281-2.4375 4.957-3.6953 5.4609-4.2539 10.379-9.1094 15.246-14.02zm-151.03 136.75c1.9258-3.6406 3.8398-7.0938 5.5938-10.629 1.6875-3.3984 3.3438-6.8281 4.7656-10.348 1.457-3.6133 2.6094-7.3516 4.0977-11.602 3.6523 3.9883 7.2109 7.2617 9.5742 11.457 3.293 5.8516 6.7891 11.633 8.9531 18.055 0.38672 1.1367 0.91797 2.2344 1.4688 3.3086 3.1914 6.2773 4.5742 12.93 4.4062 19.957-0.066406 2.8438-1.6914 4.7031-3.9922 5.5-2.9453 1.0234-6.2109 1.2383-8.9023-0.89062-3.5117-2.7773-7.3906-5.0977-10.457-8.457-1.2656-1.3828-2.8906-2.4453-4.3633-3.6406-2.0234-1.6406-3.9297-3.375-5.1523-5.7383-0.71094-1.3789-1.293-2.8828-2.2695-4.043-0.95703-1.1172-2.332-1.8633-3.7227-2.9297zm4.9297 39.352c0.80469 3.1016 0.66797 6.1836 0.46094 9.25-0.16406 2.4805-1.6797 4.4805-3.707 5.9531-2.918 2.1211-6.1094 3.1133-9.9727 2.1211-5.8086-7.2539-9.7266-15.508-11.727-24.543 7.1016-8.2109 11.906-17.59 18.223-26.746 0.5 2.4297 0.95313 4.2461 1.2305 6.082 1.4258 9.375 3.1094 18.707 5.4922 27.883zm17.809-71.566c-0.085937-0.14453-0.25781-0.24219-0.35156-0.375-1.5-2.0938-2.9453-4.2266-4.4961-6.2773-1.2539-1.6562-1.2891-3.4102-1.0195-5.3867 0.58984-4.4453 0.95312-8.9258 1.4492-13.383 0.085937-0.75-0.40234-1.7539 0.86719-2.2383 5.8594 4.1094 11.711 8.3711 19.09 9.5977 2.0312 0.33984 3.2266 1.8984 4.3242 3.4727 0.88672 1.2656 1.6875 2.5938 2.5859 3.8477 2.1172 2.9336 4.3281 5.7969 6.4023 8.7656 2.8281 4.0547 4.1172 8.6445 4.5859 13.492-0.46875 0.44922-0.78516 0.88672-1.2109 1.1328-3.9414 2.2695-8.2617 2.168-12.59 1.8828-0.48047-0.035157-0.98047-0.32422-1.4102-0.58984-6.582-4-14.137-6.7109-18.227-13.941zm18.547-20.973c-1.6367-0.0625-3.4141-0.80078-4.8203-1.707-3.6289-2.3242-7.0938-4.8984-10.602-7.4141-0.54297-0.39062-1.0195-0.94531-1.3828-1.5195-1.6562-2.6133-3.2578-5.2695-4.918-7.9688 0.26953-2.8633 0.54688-5.7773 0.82422-8.7031 0.26953-2.8555-0.51953-5.8125 0.68359-8.8555 2.2578 0.33594 4.1562 0.94141 5.9688 1.9922 1.7852 1.043 3.5898 2.2734 5.5508 2.7617 3.6055 0.89062 6.6914 2.7383 9.7812 4.5938 4.4258 2.6602 8.7695 5.4375 14 6.3555 0.96484 0.16797 1.8125 0.95312 2.7148 1.457 1.3555 0.76172 2.6445 1.6914 4.0781 2.25 4.4648 1.7461 7.0273 5.375 9.3906 9.2109 0.33203 0.53906 0.3125 1.2812 0.50391 2.1445-2.8008 1.1992-5.4141 2.4883-8.1523 3.4648-7.6836 2.7539-15.688 2.2188-23.621 1.9375zm-17.621-50.426h3.3359c6.043-0.015625 12.086-0.09375 18.121-0.027343 2.457 0.027343 4.8008-1.1406 7.0859-1.0703 5.0352 0.16406 9.9414-0.76172 14.918-0.97266 3.2773-0.14062 6.5625-0.054688 9.8398-0.011719 0.99219 0.011719 1.9805 0.23047 2.8633 0.33594 0.72266 1.8086 0.62109 3.332-0.51953 4.5977-1.4961 1.6523-3 3.332-4.7031 4.7539-4.0078 3.3672-8.8047 5.4336-13.484 7.6211-2 0.93359-4.207 1.4844-6.3711 1.9805-2.3477 0.53906-4.75 0.80469-7.1289 1.1914-2.9414 0.47656-5.8672 0.35156-8.7305-0.41016-6.0273-1.6016-11.297-4.9453-16.883-7.5469-0.26953-0.125-0.41016-0.52734-0.72656-0.94531-0.31641-3.1914-0.027343-6.3711 2.3828-9.4961zm99.012-66.551c2.9062-3 5.4023-6.2539 7.8516-9.6094 5.3828-7.3789 9.5078-15.668 16-22.242 0.51953-0.52734 1.2539-0.83984 1.8594-1.2305 1.4297 1.9648 1.2383 3.8984 1.2305 5.7891-0.023438 5.5312 0.015625 11.066-0.10156 16.594-0.20312 9.2305-1.6367 18.211-5.5781 26.684-1.3086 2.8164-2.3633 5.75-3.6523 8.5781-4.4922 9.8555-10.32 18.73-18.82 25.66-2.2773 1.8555-4.4414 3.8477-6.6758 5.7617-4.3398 3.7227-8.8984 7.1523-13.984 9.7891-5.8125 3.0117-11.703 5.8672-17.578 8.7578-0.074219 0.035156-0.38672-0.42188-0.73828-0.81641 2.5938-2.543 2.9844-5.8242 2.957-9.4141-0.027344-3.6562-1.5352-5.2148-4.8906-5.0625-2.0703 0.09375-4.1484-0.011719-6.2227-0.015625-2.2227-0.003906-4.4453-0.003906-6.668-0.003906-0.14453-0.35156-0.29688-0.71094-0.44141-1.0625 1.1328-0.97266 2.2227-2.0156 3.4141-2.9102 1.5195-1.1367 3.2812-2 4.6523-3.2812 1.8633-1.7461 4.1172-2.3906 6.4219-3.1289 3.5938-1.1484 7.1641-2.3906 10.672-3.7734 1.0625-0.42188 2.0781-1.2812 2.8125-2.1953 2.7031-3.3672 5.332-6.7969 7.8867-10.281 4.1328-5.6211 6.7266-12.039 9.4023-18.418 0.59766-1.4336 0.99219-3.0352 1.9102-4.2266 2.625-3.4297 5.2891-6.8516 8.2812-9.9414zm-38.961 11.832c1.2109-3.7852 2.3203-7.6094 3.7422-11.312 2.2852-5.9688 4.7031-11.883 7.2188-17.758 5.2344-12.227 10.578-24.406 15.883-36.602 0.33984-0.79688 0.78516-1.5469 1.1211-2.3398 1.0039-2.3789 2.0391-4.7539 2.9336-7.1797 0.59766-1.6367 1.1914-3.2031 2.9414-4.0977 0.37109 0.40234 0.89062 0.71094 1.0117 1.1367 1.4062 4.6367 2.7148 9.2734 2.4805 14.223-0.20312 4.1445-0.085937 8.3047-0.21875 12.449-0.078125 2.4141-0.39062 4.8164-0.57031 7.2227-0.46484 6.2617-2.5156 12.168-4.0586 18.188-0.85547 3.3438-1.7305 6.7031-2.9414 9.9297-2.1797 5.8281-4.6328 11.547-6.9453 17.328-3.3594 8.3945-7.668 16.219-13.273 23.363-2.4297 3.1016-5.0391 5.5938-9.1953 6.5078 0.62109-3.6016 1.1484-7.1406 1.8594-10.641 1.1602-5.6719 1.8945-11.285-1.5508-16.48-0.85938-1.293-0.86719-2.582-0.4375-3.9375zm-46.809 31.23c2.5703-1.2656 4.8828-2.3867 7.1719-3.5391 3.0742-1.5508 6.1602-3.0859 9.1953-4.7109 1.3594-0.72656 2.7812-1.4844 3.8867-2.5352 5.4258-5.1797 11.934-8.7969 18.211-12.738 1.2773-0.80078 2.7773-1.332 4.25-1.6758 0.70703-0.16406 1.8594 0.17188 2.3359 0.70703 1.1758 1.3281 2.0547 3.2148 1.0742 4.7617-1.7852 2.8281-1.6797 5.9453-2.0234 8.9883-0.73438 6.5469-3.8008 11.781-8.7812 15.902-3.1797 2.6367-6.5781 5.0195-9.9297 7.4414-0.82422 0.59375-1.8203 0.98047-2.7773 1.3477-2.7344 1.0586-5.5 2.043-8.2305 3.0977-2.2852 0.87891-4.6094 1.3281-7.0742 1.2812-4.4922-0.085937-8.9805-0.011719-13.473-0.039063-0.98438-0.003906-1.9648-0.16406-3.293-0.28516 0.30078-0.93359 0.39062-1.6172 0.71875-2.1445 1.5469-2.4922 2.9062-5.168 4.8164-7.3594 2.2383-2.5625 3.6719-5.3477 3.9219-8.5zm-104.39 160.93c4.4648-2.3359 8.5273-5.2422 12.203-8.7148 2.5156-2.375 5.2305-4.5352 7.7344-6.9219 2.8789-2.7383 5.9375-5.375 8.3672-8.4844 5.6445-7.2109 11.312-14.449 14.992-22.965 0.75-1.7422 1.8438-3.3281 2.7266-5.0117 0.56641-1.0703 1.2227-2.1406 1.5234-3.2891 1.832-7.0156 4-13.961 4.7031-21.242 0.46484-4.8164 1.2227-9.6094 1.7266-14.426 0.81641-7.9023 2.7891-15.688 2.4883-23.703-0.027344-0.68359 0.027344-1.3984 0.20312-2.0625 0.76172-2.9062 0.51562-5.8242 0.33594-8.7695-0.10156-1.6914-0.066407-3.5156 0.44922-5.1016 1.5859-4.9062 3.2148-9.7031 6.957-13.691 4.1094-4.375 8.5977-8.0039 14.105-10.258 2.3984-0.98438 4.6797-2.1836 7.0273-3.1797 3.2695-1.3828 6.9219-1.8945 10.426-2.6992 0.62109-0.14453 1.3281 0.050781 2.8672 0.13281-0.875 1.5898-1.3047 2.4922-1.8477 3.3203-4.2734 6.4961-8.5508 12.988-12.859 19.461-1.293 1.9492-1.7266 4.0312-1.7305 6.3672-0.015625 7.957-0.18359 15.914-0.33203 23.867-0.023438 1.1992 0.125 2.5938-0.42188 3.5625-1.6875 3.0234-1.8047 6.3398-1.8711 9.5703-0.26953 12.059-3.3984 23.582-6.418 35.105-2.0234 7.6992-5.2188 14.992-8.875 22.086-4.4414 8.6133-8.9492 17.152-15.809 24.176-0.71875 0.73437-1.2617 1.6406-1.9336 2.4258-2.4648 2.8789-4.5977 6.1758-7.5039 8.5078-4.9492 3.9609-9.8516 8.1914-16.238 9.9023-1.1602 0.30859-2.2695 0.85156-3.3555 1.3789-8.3438 4.0703-16.078 1.832-23.613-2.2773-0.375-0.20703-0.51953-0.82813-0.73438-1.1797 0.38281-3.0391 2.2891-4.625 4.707-5.8867zm44.98 26.676c-0.050781 0.83984-0.42188 1.668-0.70703 2.4805-0.96875 2.7734-1.7734 5.6094-2.9922 8.2656-1.8594 4.0703-3.9805 8.0352-8.8359 10.039-2.2773-1.7031-4.1484-3.1992-5.1914-5.4883-1.5-3.3164-2.6992-6.7266-3.0977-10.383-0.64844-5.9453-1.3438-11.891-2.0391-18.02 2.9609-1.2305 6.1055-2.2305 8.9258-3.8008 2.8438-1.5898 5.3242-3.8203 8.0586-5.6328 1.0859-0.72266 2.4141-1.0703 3.4648-1.5195 0.51562 0.49219 0.89062 0.68359 0.98438 0.96484 2.5312 7.5742 1.8594 15.348 1.4297 23.094zm-46.043 21.957c-1.2695-0.40234-2.0273-1.293-2.2578-2.5742-0.11719-0.66797-0.027344-1.3711-0.078125-2.0547-0.14453-1.8945-0.0625-3.8398-0.51562-5.6562-1.4453-5.7852-0.98047-11.66-1.0938-17.512-0.050781-2.4453 0.48828-4.7266 2.1719-7.207 3.0977 1.6523 6.3906 2.4453 9.8789 2.1719 3.5781-0.28125 7.1641-0.48047 10.809-0.72266-2.1953 9.2188-5.7617 17.578-10.574 25.395-1.5352 2.4922-3.3203 4.8398-5.0977 7.168-0.76953 1.0078-1.9375 1.3984-3.2422 0.99219zm32.48 38.879c-0.6875 3.9219-2.168 5.0781-5.9258 4.0156-1.25-0.35156-2.543-1.1797-3.4062-2.1602-4.2266-4.8086-8.1133-9.8672-10.477-15.934-0.87891-2.2461-2.0039-4.4023-3.0586-6.5781-1.9336-4.0195-3.7734-8.082-4.9336-12.398 7.3594-7.375 10.574-16.957 15.012-26.527 1.5508 8.3047 2.4805 16.094 8.3945 21.711 0.16406 2.0117 0.13281 3.8984 0.48828 5.7109 1.0977 5.5781 2.6562 11.09 3.4375 16.703 0.71484 5.0938 1.3789 10.266 0.46875 15.457zm34.566-8.6523c1.1328 1.9375 2.3516 3.8242 3.5742 5.707 1.2109 1.8555 2.4688 3.6719 3.9375 5.8594-1.0469 0.23047-1.3945 0.40234-1.707 0.35938-7.5312-1.0703-14.258-3.8906-19.898-9.1055-1.0078-0.93359-2.1523-1.7266-3.1641-2.6602-1.8984-1.7461-3.9609-3.3711-5.5664-5.3555-3.0352-3.7539-5.8125-7.7109-8.6641-11.609-0.39844-0.54297-0.68359-1.2031-0.86719-1.8555-0.69531-2.4414-1.3281-4.8945-2.0508-7.582 5.5-0.074219 8.3008-4.3359 11.574-7.5156 2.0156 2.6641 3.6914 5.293 5.7734 7.5391 3.5156 3.7812 7.0273 7.5156 9.1094 12.344 0.26953 0.62109 0.81641 1.1094 1.1641 1.707 1.2031 2.082 2.3906 4.1758 3.5547 6.2812 1.0977 1.9531 2.1055 3.957 3.2305 5.8867zm44.527-0.66016c-2.4688 0.63281-4.6406 0.44922-6.8047-0.16406-4.8203-1.3555-9.6445-2.7148-14.441-4.1445-1.3164-0.39062-2.5859-0.98047-3.8242-1.5898-4.1836-2.0664-8.4453-4-12.492-6.3125-6.4297-3.6797-12.945-7.3203-17.367-13.602-0.39062-0.55859-0.91406-1.0547-1.4609-1.4727-2.8516-2.1914-4.3516-5.3242-5.8203-8.4375-0.80078-1.6953-1.2148-3.5742-1.8242-5.4375 0.82812-2.4258 1.8633-4.832 2.457-7.3359 0.62891-2.6211 0.83594-5.3359 1.3086-8.6406 1.5469 1.8086 2.7734 3.0195 3.7227 4.4258 1.6289 2.3984 3.8633 3.2969 6.6523 3.2422 2.5742-0.042969 5.1523-0.003906 8.1133-0.003906 2.7344 3.5156 5.6992 7.3008 8.0469 11.531 1.1914 2.1445 2.7266 3.9141 4.8672 5.2539 3.2188 2.0039 6.3711 4.1367 9.3906 6.4336 3.5508 2.7031 7.1641 5.3984 9.5586 9.3242 0.53125 0.875 1.3672 1.5586 2.0391 2.3398 3.6328 4.2422 5.9336 9.1797 7.8789 14.59zm39.949-25.965c2.6094 2.0781 4.3008 4.8555 5.4102 8.1914-1.5273 1.8125-3.1641 2.3125-4.8711 2.625-6.0039 1.1016-12.039 1.2109-18.008 0.027344-7.9688-1.5742-15.742-3.9102-23.375-6.7148-4.7383-1.7422-9.0938-4.1211-13.125-7.1328-1.3789-1.0312-2.8047-2.0117-4.1367-3.0898-3.8398-3.1133-8.7422-4.9375-11.434-9.4688-0.39844-0.66797-1.418-0.94141-2.082-1.4766-1.0703-0.86328-2.2188-1.6875-3.1016-2.7227-1.6641-1.9609-2.3242-4.375-1.2812-6.7305 1.6758-3.7617 1.8242-7.6484 1.7461-11.637-0.027344-1.4453-0.35938-3 0.66797-4.7891 1.4062 1.3398 2.7344 2.2188 3.5273 3.4492 1.2773 1.9805 3.0195 3.2422 4.9766 4.3867 1.3398 0.77344 2.5469 1.7812 3.8008 2.6992 1.3945 1.0195 2.6562 2.375 4.207 2.9961 4.0781 1.6289 7.5312 4.2344 11.059 6.6992 3.0391 2.1211 6.2656 3.5938 9.8945 4.2734 1.6953 0.32031 3.375 0.73438 5.0391 1.2031 1.3203 0.375 2.6602 0.77344 3.8867 1.3711 4.3359 2.1328 8.5273 4.5586 12.945 6.4961 5.3008 2.332 9.7969 5.793 14.254 9.3438zm29.176-36.406c3.3281 1.2305 5.8359 3.4883 7.7578 6.707-0.60547 0.58984-0.99219 1.1797-1.5508 1.4727-6.2148 3.2461-12.965 4.918-19.84 5.5234-8.5977 0.75781-17.246 0.89453-25.879 1.2109-3.457 0.125-6.9219-0.09375-10.371 0.042969-5.0586 0.20703-9.9414-0.47656-14.836-1.8203-2.8945-0.79688-5.4766-1.9258-7.9688-3.5391-3.6055-2.3398-7.1133-4.8047-11.027-6.7383-3.6641-1.8086-6.957-4.5117-10.09-7.2031-2.4688-2.1172-4.5469-4.7227-6.6133-7.2617-2.75-3.3828-4.9492-7.043-5.1914-11.621-0.089844-1.7031-0.70703-3.375-0.99219-5.0781-0.37109-2.2109-0.64453-4.4336-0.94531-6.6523-0.023437-0.16406 0.015625-0.38672 0.11328-0.49219 0.089843-0.09375 0.30859-0.078126 0.68359-0.15234 2.0273 1.5977 4.3945 3.0781 6.2734 5.0273 3.3867 3.5156 7.4531 6.1602 11.16 9.2578 1.9336 1.6133 4.1836 2.457 6.6133 2.7031 3.0742 0.3125 6.1719 0.40234 9.6484 0.60938 4.4297 5.5781 4.3555 5.75 11.238 8.7031 5.2461 2.2461 10.859 3.4336 16.543 4.0156 9.1328 0.93359 18.301 0.57812 27.457 0.44141 1.5391-0.023437 3.1797-0.19141 4.6016 0.25391 4.457 1.3906 8.8477 2.9648 13.215 4.5898zm1.0039-30.297c6.875 0.76172 13.668 1.9727 20.461 3.2148 1.1484 0.21094 2.3359 0.68359 3.293 1.3438 2.9414 2.0391 2.8281 4.5352-0.5 5.7109-3.1133 1.1016-5.8867 2.793-8.8555 4.1172-2.6875 1.1914-5.2656 2.5703-8.3086 2.7266-0.99609 0.054688-1.9531 0.68359-2.9609 0.90625-1.8438 0.40234-3.7031 0.74609-5.5703 1.0352-1.5352 0.24219-3.0898 0.37109-4.6367 0.53125-4.9688 0.53906-9.9297 1.4336-14.902 1.5273-7.9531 0.15234-15.914-0.19531-23.871-0.41406-2.0664-0.054688-4.0469-0.5-5.9766-1.4883-2.2773-1.1719-4.7617-1.9531-7.168-2.8828-3.8906-1.5-7.6328-3.0859-10.02-6.9141-1.0078-1.625-1.3906-3.0898-0.98437-4.8398 2.0508-8.9219-0.64844-17.07-4.1562-25.047-0.81641-1.8594-1.9648-3.5547-2.1094-6.0938 2.8242 1.5117 3.8008 3.9023 5.0625 6.0859 0.68359 1.1797 1.2539 2.5859 2.2773 3.375 1.9609 1.5078 3.2266 3.5625 4.8828 5.2695 1.7695 1.8242 3.9102 3.5 6.1992 4.5586 2.7891 1.2812 5.8633 2.043 8.8867 2.6758 5.2812 1.1016 10.652 0.98047 16.031 0.89453 4.1289-0.0625 8.3008 0.17188 12.398 0.68359 6.8633 0.86328 13.656 2.2617 20.527 3.0234zm31.605-51.141c1.9609 0.14062 2.832 1.4102 2.9297 3.6172 0.21875 5.125-1.4727 9.5664-5.2734 12.988-2.9531 2.6484-5.9766 5.3242-9.3359 7.3906-10.289 6.3164-20.609 12.512-32.809 14.797-6.9492 1.3047-13.816 2.9023-20.914 3.3164-5.2148 0.30078-10.348-0.042969-15.477-0.875-7.2188-1.1641-12.312-5.7891-17.27-10.629-0.34766-0.33984-0.52734-0.89062-0.69922-1.3711-1.2227-3.3281-3.332-6.0078-5.918-8.3789-0.54297-0.5-0.88672-1.2227-1.2617-1.7578 8.5586 0.80469 16.703 0.86719 23.348-5.5625 0.37891 0 0.73438-0.050781 1.0625 0.003907 7.207 1.2891 14.543 1.25 21.695 0.46094 7.1445-0.78906 14.219-2.7266 21.164-4.7266 8.0938-2.3242 16.18-4.7383 23.93-8.1602 4.7148-2.082 9.8398-1.4609 14.828-1.1133zm-18.137-5.3398c-0.80078 0.30859-1.5664 0.73438-2.3242 1.1523-10.977 6.1484-22.844 9.7734-35.078 12.273-8.0469 1.6445-16.168 1.3867-24.262 0.25-1.1523-0.16406-2.2695-0.59766-3.4258-0.91797-2.5977-9.0391-7.3359-16.543-13.922-22.902-0.23438-0.22266-0.125-0.80078-0.21094-1.5508 2.793 0.77344 5.2344 1.6016 7.7383 2.1055 9.3125 1.8828 18.633 1.2812 27.816-0.66797 8.9766-1.9023 17.695-4.6992 25.828-9.1406 2.3984-1.3086 5.1133-2.043 7.6836-3.0312 4.1758-1.6016 8.4961-2.918 12.504-4.8555 7.6211-3.6719 15.086-7.6875 22.598-11.598 2.1445-1.1133 4.1992-2.4062 6.3398-3.5273 1.1914-0.62891 2.3984-1.4766 4.043-0.80078 0.53125 2.5039 0.57031 4.9766-0.57812 7.4805-4.0977 8.9375-9.9961 16.645-16.906 23.457-5.1602 5.0781-10.902 9.6367-17.844 12.273z" fill-rule="evenodd"/>
  <use x="70" y="644" xlink:href="#u"/>
  <use x="90.550781" y="644" xlink:href="#b"/>
  <use x="104.359375" y="644" xlink:href="#a"/>
  <use x="123.347656" y="644" xlink:href="#f"/>
  <use x="142.242188" y="644" xlink:href="#c"/>
  <use x="155.628906" y="644" xlink:href="#a"/>
  <use x="174.617188" y="644" xlink:href="#i"/>
  <use x="204.410156" y="644" xlink:href="#h"/>
  <use x="224.453125" y="644" xlink:href="#e"/>
  <use x="252.453125" y="644" xlink:href="#g"/>
  <use x="274.121094" y="644" xlink:href="#f"/>
  <use x="293.015625" y="644" xlink:href="#t"/>
  <use x="302.613281" y="644" xlink:href="#a"/>
  <use x="321.601562" y="644" xlink:href="#b"/>
  <use x="335.414062" y="644" xlink:href="#s"/>
  <use x="345.007812" y="644" xlink:href="#e"/>
  <use x="70" y="672" xlink:href="#r"/>
  <use x="82.183594" y="672" xlink:href="#b"/>
  <use x="95.992188" y="672" xlink:href="#d"/>
  <use x="115.226562" y="672" xlink:href="#q"/>
  <use x="154.152344" y="672" xlink:href="#c"/>
  <use x="167.535156" y="672" xlink:href="#p"/>
  <use x="187.46875" y="672" xlink:href="#a"/>
  <use x="216.207031" y="672" xlink:href="#o"/>
  <use x="239.640625" y="672" xlink:href="#d"/>
  <use x="258.878906" y="672" xlink:href="#n"/>
  <use x="278.8125" y="672" xlink:href="#m"/>
  <use x="308.492188" y="672" xlink:href="#l"/>
  <use x="329.015625" y="672" xlink:href="#b"/>
  <use x="342.820312" y="672" xlink:href="#d"/>
  <use x="362.058594" y="672" xlink:href="#k"/>
  <use x="371.65625" y="672" xlink:href="#a"/>
  <use x="390.648438" y="672" xlink:href="#j"/>
  <use x="407.242188" y="672" xlink:href="#c"/>
 </g>
</svg>
